<svg version="1.1" id="svg9" xml:space="preserve" width="300" height="300" viewBox="0 0 682.66669 682.66669" xmlns="http://www.w3.org/2000/svg" xmlns:svg="http://www.w3.org/2000/svg" xmlns:xlink="http://www.w3.org/1999/xlink" xmlns:svgjs="http://svgjs.dev/svgjs"><g width="100%" height="100%" transform="matrix(1,0,0,1,0,0)"><defs id="defs13"><clipPath clipPathUnits="userSpaceOnUse" id="clipPath23"><path d="M 0,512 H 512 V 0 H 0 Z" id="path21" fill="#000000" fill-opacity="1" data-original-color="#000000ff" stroke="none" stroke-opacity="1" style=""/></clipPath></defs><g id="g15" transform="matrix(1.3333333,0,0,-1.3333333,0,682.66667)"><g id="g17"><g id="g19" clip-path="url(#clipPath23)"><g id="g25" transform="translate(60.104,7.5)"><path d="m 0,0 v 180.273 c 0,28.303 22.944,51.247 51.246,51.247 h 91.778 c 28.302,0 51.246,-22.944 51.246,-51.247 V 0 Z" style="fill-rule: nonzero;" id="path27" fill="#f2a905" fill-opacity="1" data-original-color="#ffd52bff" stroke="none" stroke-opacity="1"/></g><g id="g29" transform="translate(203.1279,239.0195)"><path d="M 0,0 H -30 C -1.697,0 21.246,-22.944 21.246,-51.247 V -231.52 h 30 V -51.247 C 51.246,-22.944 28.303,0 0,0" style="fill-rule: nonzero;" id="path31" fill="#d19308" fill-opacity="1" data-original-color="#fcca00ff" stroke="none" stroke-opacity="1"/></g><g id="g33" transform="translate(157.271,214.438)"><path d="M 0,0 H -0.064 C -12.371,0 -22.348,9.977 -22.348,22.284 V 63.229 H 22.284 V 22.284 C 22.284,9.977 12.307,0 0,0" style="fill-rule: nonzero;" id="path35" fill="#ffdbb5" fill-opacity="1" data-original-color="#ffdbb5ff" stroke="none" stroke-opacity="1"/></g><g id="g37" transform="translate(157.3657,263.6011)"><path d="m 0,0 h -0.253 c -48.496,0 -87.809,39.313 -87.809,87.809 v 57.464 c 0,37.895 30.721,68.616 68.616,68.616 h 38.639 c 37.895,0 68.616,-30.721 68.616,-68.616 V 87.809 C 87.809,39.313 48.495,0 0,0" style="fill-rule: nonzero;" id="path39" fill="#ffdbb5" fill-opacity="1" data-original-color="#ffdbb5ff" stroke="none" stroke-opacity="1"/></g><g id="g41" transform="translate(176.5586,477.4897)"><path d="M 0,0 H -30 C 7.896,0 38.616,-30.72 38.616,-68.616 v -57.464 c 0,-43.425 -31.525,-79.482 -72.935,-86.548 4.835,-0.825 9.803,-1.261 14.873,-1.261 h 0.253 c 48.495,0 87.809,39.313 87.809,87.809 v 57.464 C 68.616,-30.72 37.896,0 0,0" style="fill-rule: nonzero;" id="path43" fill="#ffd1a1" fill-opacity="1" data-original-color="#ffd1a1ff" stroke="none" stroke-opacity="1"/></g><g id="g45" transform="translate(176.4604,504.5)"><path d="m 0,0 h -38.442 c -15.922,0 -62.851,-8.547 -68.714,-60.491 v -45.021 c 0,0 102.286,-8.974 132.885,41.787 1.98,3.285 6.941,2.625 8.121,-1.022 10.657,-32.959 34.864,-40.765 34.864,-40.765 v 45.021 C 62.85,-8.547 15.921,0 0,0" style="fill-rule: nonzero;" id="path47" fill="#0554f2" fill-opacity="1" data-original-color="#5d76cfff" stroke="none" stroke-opacity="1"/></g><g id="g49" transform="translate(176.4604,504.5)"><path d="m 0,0 h -30 c 15.921,0 62.85,-8.547 68.714,-60.491 v -16.056 c 11.785,-23.078 30,-28.964 30,-28.964 v 45.02 C 62.85,-8.547 15.921,0 0,0" style="fill-rule: nonzero;" id="path51" fill="#093fad" fill-opacity="1" data-original-color="#4d69cfff" stroke="none" stroke-opacity="1"/></g><g id="g53" transform="translate(284.374,7.5)"><path d="m 0,0 v 58.111 c 0,21.778 17.655,39.433 39.434,39.433 h 70.621 c 21.778,0 39.433,-17.655 39.433,-39.434 V 0 Z" style="fill-rule: nonzero;" id="path55" fill="#ffdbb5" fill-opacity="1" data-original-color="#ffdbb5ff" stroke="none" stroke-opacity="1"/></g><g id="g57" transform="translate(315.3276,7.5)"><path d="m 0,0 v 91.82 c 0,5.523 4.477,10 10,10 h 69.176 c 5.522,0 10,-4.477 10,-10 V 0 Z" style="fill-rule: nonzero;" id="path59" fill="#ffbfed" fill-opacity="1" data-original-color="#ffbfedff" stroke="none" stroke-opacity="1"/></g><g id="g61" transform="translate(394.5034,109.3198)"><path d="m 0,0 h -30 c 5.522,0 10,-4.477 10,-10 v -91.82 H 10 V -10 C 10,-4.477 5.522,0 0,0" style="fill-rule: nonzero;" id="path63" fill="#ffb0e9" fill-opacity="1" data-original-color="#ffb0e9ff" stroke="none" stroke-opacity="1"/></g><g id="g65" transform="translate(359.1416,91.563)"><path d="M 0,0 H -0.046 C -8.937,0 -16.144,7.207 -16.144,16.097 V 35.514 H 16.097 V 16.097 C 16.097,7.207 8.89,0 0,0" style="fill-rule: nonzero;" id="path67" fill="#ffdbb5" fill-opacity="1" data-original-color="#ffdbb5ff" stroke="none" stroke-opacity="1"/></g><g id="g69" transform="translate(350.4995,290.6636)"><path d="m 0,0 c 0,27.92 22.698,50.553 50.698,50.553 28,0 50.698,-22.633 50.698,-50.553 z" style="fill-rule: nonzero;" id="path71" fill="#0554f2" fill-opacity="1" data-original-color="#5d76cfff" stroke="none" stroke-opacity="1"/></g><g id="g73" transform="translate(358.0918,124.3755)"><path d="m 0,0 h -0.192 c -36.967,0 -66.935,29.967 -66.935,66.935 v 29.173 c 0,36.967 29.968,66.934 66.935,66.934 H 0 c 36.967,0 66.935,-29.967 66.935,-66.934 V 66.935 C 66.935,29.967 36.967,0 0,0" style="fill-rule: nonzero;" id="path75" fill="#ffdbb5" fill-opacity="1" data-original-color="#ffdbb5ff" stroke="none" stroke-opacity="1"/></g><g id="g77" transform="translate(358.0918,287.418)"><path d="m 0,0 h -0.192 c -5.126,0 -10.109,-0.596 -14.904,-1.687 29.789,-6.777 52.031,-33.406 52.031,-65.248 v -29.173 c 0,-31.842 -22.242,-58.471 -52.031,-65.248 4.795,-1.091 9.778,-1.686 14.904,-1.686 H 0 c 36.967,0 66.935,29.967 66.935,66.934 v 29.173 C 66.935,-29.968 36.967,0 0,0" style="fill-rule: nonzero;" id="path79" fill="#ffd1a1" fill-opacity="1" data-original-color="#ffd1a1ff" stroke="none" stroke-opacity="1"/></g><g id="g81" transform="translate(290.9648,249.1011)"><path d="m 0,0 v -20.93 h 82.567 l 13.996,19.959 12.33,-19.959 h 25.169 V 0 c 0,36.915 -30.011,66.839 -67.031,66.839 C 30.011,66.839 0,36.915 0,0" style="fill-rule: nonzero;" id="path83" fill="#0554f2" fill-opacity="1" data-original-color="#5d76cfff" stroke="none" stroke-opacity="1"/></g><g id="g85" transform="translate(357.9956,315.9404)"><path d="m 0,0 v 0 c -5.159,0 -10.175,-0.601 -15,-1.701 29.795,-6.796 52.031,-33.368 52.031,-65.138 v -13.109 l 4.831,-7.821 h 25.169 v 20.93 C 67.031,-29.925 37.02,0 0,0" style="fill-rule: nonzero;" id="path87" fill="#093fad" fill-opacity="1" data-original-color="#4d69cfff" stroke="none" stroke-opacity="1"/></g><path d="M 218.348,133.887 H 96.131 v 33.249 h 122.217 z" style="fill-rule: nonzero;" id="path89" fill="#ffffff" fill-opacity="1" data-original-color="#ffffffff" stroke="none" stroke-opacity="1"/><path d="M 218.348,54.658 H 96.131 v 33.249 h 122.217 z" style="fill-rule: nonzero;" id="path91" fill="#ffffff" fill-opacity="1" data-original-color="#ffffffff" stroke="none" stroke-opacity="1"/><g id="g93" transform="translate(179.5552,239.0195)"><path d="M 0,0 H 23.573 C 51.875,0 74.819,-22.944 74.819,-51.247 V -231.52" style="stroke-linecap: round; stroke-linejoin: round; stroke-miterlimit: 10; stroke-dasharray: none;" id="path95" fill="none" fill-opacity="1" stroke="#000000" stroke-opacity="1" data-original-stroke-color="#000000ff" stroke-width="15" data-original-stroke-width="15"/></g><g id="g97" transform="translate(60.104,7.5)"><path d="m 0,0 v 180.273 c 0,28.303 22.944,51.247 51.246,51.247 h 23.573" style="stroke-linecap: round; stroke-linejoin: round; stroke-miterlimit: 10; stroke-dasharray: none;" id="path99" fill="none" fill-opacity="1" stroke="#000000" stroke-opacity="1" data-original-stroke-color="#000000ff" stroke-width="15" data-original-stroke-width="15"/></g><g id="g101" transform="translate(245.1743,408.874)"><path d="m 0,0 v -57.464 c 0,-48.496 -39.313,-87.809 -87.809,-87.809 h -0.253 c -48.495,0 -87.808,39.313 -87.808,87.809 V 0" style="stroke-linecap: round; stroke-linejoin: round; stroke-miterlimit: 10; stroke-dasharray: none;" id="path103" fill="none" fill-opacity="1" stroke="#000000" stroke-opacity="1" data-original-stroke-color="#000000ff" stroke-width="15" data-original-stroke-width="15"/></g><g id="g105" transform="translate(136.8574,315.3584)"><path d="M 0,0 C 11.266,-11.233 29.498,-11.233 40.763,0" style="stroke-linecap: round; stroke-linejoin: round; stroke-miterlimit: 10; stroke-dasharray: none;" id="path107" fill="none" fill-opacity="1" stroke="#000000" stroke-opacity="1" data-original-stroke-color="#000000ff" stroke-width="15" data-original-stroke-width="15"/></g><g id="g109" transform="translate(157.271,214.438)"><path d="M 0,0 H -0.064 C -12.371,0 -22.348,9.977 -22.348,22.284 V 49.163 H 22.284 V 22.284 C 22.284,9.977 12.307,0 0,0 Z" style="stroke-linecap: round; stroke-linejoin: round; stroke-miterlimit: 10; stroke-dasharray: none;" id="path111" fill="none" fill-opacity="1" stroke="#000000" stroke-opacity="1" data-original-stroke-color="#000000ff" stroke-width="15" data-original-stroke-width="15"/></g><g id="g113" transform="translate(74.0303,463.4854)"><path d="m 0,0 c -2.257,-5.695 -3.899,-12.154 -4.726,-19.476 v -45.021 c 0,0 102.287,-8.974 132.885,41.787 1.98,3.285 6.941,2.625 8.121,-1.022 10.657,-32.959 34.864,-40.765 34.864,-40.765 v 45.021 C 165.28,32.467 118.352,41.015 102.43,41.015 H 63.988 c -7.989,0 -23.786,-2.155 -38.284,-10.862" style="stroke-linecap: round; stroke-linejoin: round; stroke-miterlimit: 10; stroke-dasharray: none;" id="path115" fill="none" fill-opacity="1" stroke="#000000" stroke-opacity="1" data-original-stroke-color="#000000ff" stroke-width="15" data-original-stroke-width="15"/></g><g id="g117" transform="translate(404.6821,103.6978)"><path d="M 0,0 C 16.808,-4.514 29.18,-19.855 29.18,-38.087 V -96.198" style="stroke-linecap: round; stroke-linejoin: round; stroke-miterlimit: 10; stroke-dasharray: none;" id="path119" fill="none" fill-opacity="1" stroke="#000000" stroke-opacity="1" data-original-stroke-color="#000000ff" stroke-width="15" data-original-stroke-width="15"/></g><g id="g121" transform="translate(284.374,7.5)"><path d="M 0,0 V 58.111 C 0,76.978 13.25,92.75 30.952,96.629" style="stroke-linecap: round; stroke-linejoin: round; stroke-miterlimit: 10; stroke-dasharray: none;" id="path123" fill="none" fill-opacity="1" stroke="#000000" stroke-opacity="1" data-original-stroke-color="#000000ff" stroke-width="15" data-original-stroke-width="15"/></g><g id="g125" transform="translate(379.6665,109.3198)"><path d="M 0,0 H 24.837 V -101.82" style="stroke-linecap: round; stroke-linejoin: round; stroke-miterlimit: 10; stroke-dasharray: none;" id="path127" fill="none" fill-opacity="1" stroke="#000000" stroke-opacity="1" data-original-stroke-color="#000000ff" stroke-width="15" data-original-stroke-width="15"/></g><g id="g129" transform="translate(315.3276,7.5)"><path d="M 0,0 V 101.82 H 25.339" style="stroke-linecap: round; stroke-linejoin: round; stroke-miterlimit: 10; stroke-dasharray: none;" id="path131" fill="none" fill-opacity="1" stroke="#000000" stroke-opacity="1" data-original-stroke-color="#000000ff" stroke-width="15" data-original-stroke-width="15"/></g><g id="g133" transform="translate(375.2388,125.0767)"><path d="m 0,0 v -17.417 c 0,-8.89 -7.207,-16.097 -16.097,-16.097 h -0.047 c -8.89,0 -16.097,7.207 -16.097,16.097 V 0" style="stroke-linecap: round; stroke-linejoin: round; stroke-miterlimit: 10; stroke-dasharray: none;" id="path135" fill="none" fill-opacity="1" stroke="#000000" stroke-opacity="1" data-original-stroke-color="#000000ff" stroke-width="15" data-original-stroke-width="15"/></g><g id="g137" transform="translate(357.4648,316.2534)"><path d="m 0,0 c 8.81,14.938 25.097,24.963 43.733,24.963 28,0 50.698,-22.633 50.698,-50.553 H 53.025" style="stroke-linecap: round; stroke-linejoin: round; stroke-miterlimit: 10; stroke-dasharray: none;" id="path139" fill="none" fill-opacity="1" stroke="#000000" stroke-opacity="1" data-original-stroke-color="#000000ff" stroke-width="15" data-original-stroke-width="15"/></g><g id="g141" transform="translate(424.5229,183.0605)"><path d="m 0,0 c -2.199,-17.879 -11.789,-34.384 -26.166,-45.225 -14.437,-10.885 -32.99,-15.44 -50.843,-12.659 -17.687,2.756 -33.791,12.774 -44.171,27.345 -8.857,12.433 -12.378,26.765 -12.378,41.851 v 32.923 0.875" style="stroke-linecap: round; stroke-linejoin: round; stroke-miterlimit: 10; stroke-dasharray: none;" id="path143" fill="none" fill-opacity="1" stroke="#000000" stroke-opacity="1" data-original-stroke-color="#000000ff" stroke-width="15" data-original-stroke-width="15"/></g><g id="g145" transform="translate(342.4595,169.1743)"><path d="M 0,0 C 8.587,-8.563 22.485,-8.563 31.073,0" style="stroke-linecap: round; stroke-linejoin: round; stroke-miterlimit: 10; stroke-dasharray: none;" id="path147" fill="none" fill-opacity="1" stroke="#000000" stroke-opacity="1" data-original-stroke-color="#000000ff" stroke-width="15" data-original-stroke-width="15"/></g><g id="g149" transform="translate(290.9648,249.1011)"><path d="m 0,0 v -20.93 h 82.567 l 13.996,19.959 12.33,-19.959 h 25.169 V 0 c 0,36.915 -30.011,66.839 -67.031,66.839 C 30.011,66.839 0,36.915 0,0 Z" style="stroke-linecap: round; stroke-linejoin: round; stroke-miterlimit: 10; stroke-dasharray: none;" id="path151" fill="none" fill-opacity="1" stroke="#000000" stroke-opacity="1" data-original-stroke-color="#000000ff" stroke-width="15" data-original-stroke-width="15"/></g><path d="M 218.348,133.887 H 96.131 v 33.249 h 122.217 z" style="stroke-linecap: round; stroke-linejoin: round; stroke-miterlimit: 10; stroke-dasharray: none;" id="path153" fill="none" fill-opacity="1" stroke="#000000" stroke-opacity="1" data-original-stroke-color="#000000ff" stroke-width="15" data-original-stroke-width="15"/><path d="M 218.348,54.658 H 96.131 v 33.249 h 122.217 z" style="stroke-linecap: round; stroke-linejoin: round; stroke-miterlimit: 10; stroke-dasharray: none;" id="path155" fill="none" fill-opacity="1" stroke="#000000" stroke-opacity="1" data-original-stroke-color="#000000ff" stroke-width="15" data-original-stroke-width="15"/><g id="g157" transform="translate(218.3477,177.3384)"><path d="M 0,0 V -169.838" style="stroke-linecap: round; stroke-linejoin: round; stroke-miterlimit: 10; stroke-dasharray: none;" id="path159" fill="none" fill-opacity="1" stroke="#000000" stroke-opacity="1" data-original-stroke-color="#000000ff" stroke-width="15" data-original-stroke-width="15"/></g><g id="g161" transform="translate(96.1304,177.3384)"><path d="M 0,0 V -169.838" style="stroke-linecap: round; stroke-linejoin: round; stroke-miterlimit: 10; stroke-dasharray: none;" id="path163" fill="none" fill-opacity="1" stroke="#000000" stroke-opacity="1" data-original-stroke-color="#000000ff" stroke-width="15" data-original-stroke-width="15"/></g></g></g></g></g></svg>