<svg id="Capa_1" enable-background="new 0 0 512 512" height="300" viewBox="0 0 512 512" width="300" xmlns="http://www.w3.org/2000/svg" version="1.1" xmlns:xlink="http://www.w3.org/1999/xlink" xmlns:svgjs="http://svgjs.dev/svgjs"><g width="100%" height="100%" transform="matrix(1,0,0,1,0,0)"><g><path d="m116.2 464.706h-67.182v-432.171c0-13.827 11.209-25.035 25.036-25.035h17.111c13.827 0 25.035 11.209 25.035 25.035z" fill="#4b3f72" fill-opacity="1" data-original-color="#da8059ff" stroke="none" stroke-opacity="1"/><path d="m463.202 464.926h-346.782v-432.171-8.256c0-9.267 7.512-16.779 16.779-16.779h283.849c25.489 0 46.153 20.663 46.153 46.153v411.053z" fill="#6b5b9e" fill-opacity="1" data-original-color="#eab14dff" stroke="none" stroke-opacity="1"/><path d="m416.829 7.5h-24.302c25.489 0 46.153 20.663 46.153 46.153v411.054h24.302v-411.055c0-25.489-20.664-46.152-46.153-46.152z" fill="#4b3f72" fill-opacity="1" data-original-color="#e7a52eff" stroke="none" stroke-opacity="1"/><path d="m119.74 433.096c-1.83 2.217-5.232 2.204-7.045-.028l-1.572-1.935c-3.747-4.612-9.372-7.289-15.314-7.289h-21.306c-14.075 0-25.485 11.41-25.485 25.485v29.686c0 14.075 11.41 25.485 25.485 25.485h21.305c5.942 0 11.567-2.678 15.314-7.289l1.572-1.935c1.813-2.231 5.215-2.245 7.045-.028 4.837 5.859 12.039 9.252 19.637 9.252h296.315c15.072 0 27.29-12.218 27.29-27.29v-26.076c0-15.072-12.218-27.29-27.29-27.29h-296.315c-7.598 0-14.799 3.393-19.636 9.252z" fill="#f9f6f9" fill-opacity="1" data-original-color="#f9f6f9ff" stroke="none" stroke-opacity="1"/><g><path d="m435.691 423.844h-24.301c15.072 0 27.29 12.218 27.29 27.29v26.076c0 15.072-12.218 27.29-27.29 27.29h24.302c15.072 0 27.29-12.218 27.29-27.29v-26.076c0-15.072-12.219-27.29-27.291-27.29z" fill="#dddaec" fill-opacity="1" data-original-color="#dddaecff" stroke="none" stroke-opacity="1"/></g><path d="m337.679 92.357h-126.176c-2.611 0-4.729-2.117-4.729-4.729v-22.69c0-2.612 2.117-4.729 4.729-4.729h126.176c2.612 0 4.729 2.117 4.729 4.729v22.69c-.001 2.612-2.118 4.729-4.729 4.729z" fill="#f9f6f9" fill-opacity="1" data-original-color="#f9f6f9ff" stroke="none" stroke-opacity="1"/><path d="m337.679 60.21h-21.138c2.612 0 4.729 2.117 4.729 4.729v22.69c0 2.612-2.117 4.729-4.729 4.729h21.138c2.612 0 4.729-2.117 4.729-4.729v-22.69c-.001-2.611-2.118-4.729-4.729-4.729z" fill="#dddaec" fill-opacity="1" data-original-color="#dddaecff" stroke="none" stroke-opacity="1"/><path d="m382.439 325.401h-215.696c-5.191 0-9.4-4.208-9.4-9.4v-176.016c0-5.191 4.208-9.4 9.4-9.4h215.696c5.191 0 9.4 4.208 9.4 9.4v176.017c0 5.191-4.209 9.399-9.4 9.399z" fill="#f9f6f9" fill-opacity="1" data-original-color="#f9f6f9ff" stroke="none" stroke-opacity="1"/><path d="m382.439 130.585h-18.591c5.191 0 9.4 4.208 9.4 9.4v176.017c0 5.192-4.208 9.4-9.4 9.4h18.591c5.191 0 9.4-4.208 9.4-9.4v-176.017c0-5.192-4.209-9.4-9.4-9.4z" fill="#dddaec" fill-opacity="1" data-original-color="#dddaecff" stroke="none" stroke-opacity="1"/><g><path d="m416.829 0h-283.849c-7.732 0-14.632 3.633-19.081 9.281-5.87-5.739-13.896-9.281-22.734-9.281h-17.11c-17.94 0-32.536 14.595-32.536 32.535v23.176c0 4.143 3.357 7.5 7.5 7.5s7.5-3.357 7.5-7.5v-23.176c-.001-9.669 7.865-17.535 17.535-17.535h17.11c9.62 0 17.454 7.785 17.535 17.384v387.191c-3.907-2.101-8.317-3.232-12.892-3.232h-21.304c-6.63 0-12.809 1.967-17.985 5.346v-336.978c0-4.143-3.357-7.5-7.5-7.5s-7.5 3.357-7.5 7.5v394.304c0 18.188 14.797 32.985 32.985 32.985h21.305c7.934 0 15.373-3.402 20.551-9.364 6.128 5.989 14.339 9.364 23.018 9.364h87.623c4.143 0 7.5-3.357 7.5-7.5s-3.357-7.5-7.5-7.5h-87.623c-5.379 0-10.429-2.379-13.854-6.529-4.844-5.865-13.848-5.834-18.647.074l-1.573 1.936c-2.333 2.872-5.793 4.52-9.493 4.52h-21.307c-9.917 0-17.985-8.068-17.985-17.985v-29.687c0-9.917 8.068-17.984 17.985-17.984h21.305c3.7 0 7.16 1.647 9.493 4.518l1.572 1.936c4.795 5.905 13.799 5.945 18.65.073 3.424-4.147 8.473-6.526 13.853-6.526h296.314c10.913 0 19.791 8.878 19.791 19.79v26.075c0 10.913-8.878 19.791-19.791 19.791h-179.69c-4.143 0-7.5 3.357-7.5 7.5s3.357 7.5 7.5 7.5h179.691c19.184 0 34.791-15.607 34.791-34.791v-423.559c0-29.584-24.068-53.652-53.653-53.652zm18.862 416.344h-296.315c-5.559 0-10.927 1.385-15.677 3.953 0-24.648 0-378.273 0-396.018 0-5.116 4.163-9.279 9.28-9.279h283.849c21.313 0 38.653 17.34 38.653 38.652v368.883c-5.621-3.902-12.443-6.191-19.79-6.191z" fill="#000000" fill-opacity="1" data-original-color="#000000ff" stroke="none" stroke-opacity="1"/><path d="m148.862 459.121h281.458c4.143 0 7.5-3.357 7.5-7.5s-3.357-7.5-7.5-7.5h-281.458c-4.143 0-7.5 3.357-7.5 7.5s3.357 7.5 7.5 7.5z" fill="#000000" fill-opacity="1" data-original-color="#000000ff" stroke="none" stroke-opacity="1"/><path d="m148.862 484.222h281.458c4.143 0 7.5-3.357 7.5-7.5s-3.357-7.5-7.5-7.5h-281.458c-4.143 0-7.5 3.357-7.5 7.5s3.357 7.5 7.5 7.5z" fill="#000000" fill-opacity="1" data-original-color="#000000ff" stroke="none" stroke-opacity="1"/><path d="m332.287 358.346h-115.392c-4.143 0-7.5 3.357-7.5 7.5s3.357 7.5 7.5 7.5h115.392c4.143 0 7.5-3.357 7.5-7.5s-3.358-7.5-7.5-7.5z" fill="#000000" fill-opacity="1" data-original-color="#000000ff" stroke="none" stroke-opacity="1"/><path d="m211.503 99.857h126.176c6.743 0 12.229-5.485 12.229-12.229v-22.689c0-6.743-5.485-12.229-12.229-12.229h-126.176c-6.743 0-12.229 5.485-12.229 12.229l-.001 22.689c.001 6.744 5.487 12.229 12.23 12.229zm2.772-32.146h120.633v17.146h-120.634z" fill="#000000" fill-opacity="1" data-original-color="#000000ff" stroke="none" stroke-opacity="1"/><path d="m382.439 123.085h-32.565c-4.143 0-7.5 3.357-7.5 7.5s3.357 7.5 7.5 7.5h32.565c1.047 0 1.899.853 1.899 1.899v176.017c0 1.048-.853 1.9-1.899 1.9h-215.696c-1.047 0-1.899-.853-1.899-1.9v-176.017c0-1.047.853-1.899 1.899-1.899h154.131c4.143 0 7.5-3.357 7.5-7.5s-3.357-7.5-7.5-7.5h-154.131c-9.318 0-16.899 7.581-16.899 16.899v176.017c0 9.319 7.581 16.9 16.899 16.9h215.696c9.318 0 16.899-7.581 16.899-16.9v-176.017c0-9.318-7.581-16.899-16.899-16.899z" fill="#000000" fill-opacity="1" data-original-color="#000000ff" stroke="none" stroke-opacity="1"/><path d="m207.102 278.128c4.143 0 7.5-3.357 7.5-7.5v-83.31c0-4.143-3.357-7.5-7.5-7.5h-17.807c-4.143 0-7.5 3.357-7.5 7.5s3.357 7.5 7.5 7.5h10.307v75.81c0 4.143 3.357 7.5 7.5 7.5z" fill="#000000" fill-opacity="1" data-original-color="#000000ff" stroke="none" stroke-opacity="1"/><path d="m267.286 224.014c-13.219 18.887-21.109 29.219-25.349 34.769-5.231 6.851-6.994 9.159-5.678 13.438.759 2.468 2.635 4.362 5.144 5.198.998.333 2.169.725 18.217.725 6.307 0 14.913-.061 26.705-.209 4.142-.052 7.457-3.451 7.404-7.594-.052-4.109-3.399-7.405-7.497-7.405-.032 0-.064 0-.097.001-9.986.125-20.651.208-28.656.189 4.697-6.216 11.81-15.814 22.096-30.512 4.812-6.875 10.624-17.262 10.624-25.608 0-15.89-12.928-28.817-28.817-28.817-13.74 0-25.632 9.774-28.276 23.24-.798 4.064 1.85 8.007 5.914 8.805 4.062.799 8.007-1.849 8.805-5.914 1.267-6.449 6.969-11.131 13.558-11.131 7.477 0 13.585 5.969 13.811 13.391-.094.274.246 5.781-7.908 17.434z" fill="#000000" fill-opacity="1" data-original-color="#000000ff" stroke="none" stroke-opacity="1"/><path d="m367.387 206.676c0-15.89-12.928-28.817-28.817-28.817-13.739 0-25.631 9.773-28.277 23.239-.799 4.064 1.849 8.007 5.913 8.806 4.064.795 8.007-1.849 8.806-5.913 1.268-6.45 6.97-11.132 13.559-11.132 7.619 0 13.817 6.198 13.817 13.817s-6.198 13.817-13.817 13.817c-4.143 0-7.5 3.357-7.5 7.5s3.357 7.5 7.5 7.5c7.619 0 13.817 6.198 13.817 13.817s-6.198 13.817-13.817 13.817c-6.855 0-12.738-5.107-13.685-11.882-.088-.631-.133-1.282-.133-1.936 0-4.143-3.357-7.5-7.5-7.5s-7.5 3.357-7.5 7.5c0 1.345.094 2.694.277 4.011 1.975 14.143 14.244 24.807 28.54 24.807 15.89 0 28.817-12.928 28.817-28.817 0-8.439-3.646-16.042-9.446-21.317 5.8-5.275 9.446-12.878 9.446-21.317z" fill="#000000" fill-opacity="1" data-original-color="#000000ff" stroke="none" stroke-opacity="1"/></g></g></g></svg>