<?xml version="1.0" encoding="UTF-8" standalone="no"?>
<!-- Created with Inkscape (http://www.inkscape.org/) -->

<svg
   version="1.1"
   id="svg10227"
   xml:space="preserve"
   width="682.66669"
   height="682.66669"
   viewBox="0 0 682.66669 682.66669"
   xmlns="http://www.w3.org/2000/svg"
   xmlns:svg="http://www.w3.org/2000/svg"><defs
     id="defs10231"><clipPath
       clipPathUnits="userSpaceOnUse"
       id="clipPath10241"><path
         d="M 0,512 H 512 V 0 H 0 Z"
         id="path10239" /></clipPath></defs><g
     id="g10233"
     transform="matrix(1.3333333,0,0,-1.3333333,0,682.66667)"><g
       id="g10235"><g
         id="g10237"
         clip-path="url(#clipPath10241)"><g
           id="g10243"
           transform="translate(256,146.2334)"><path
             d="M 0,0 26.329,-67.629 0,-127.009 h -69.759 l -48.936,55.491 C -102.649,-22.511 -69.608,0 -69.608,0 Z"
             style="fill:#b08bd7;fill-opacity:1;fill-rule:nonzero;stroke:none"
             id="path10245" /></g><g
           id="g10247"
           transform="translate(374.6953,74.7158)"><path
             d="m 0,0 -48.937,-55.491 h -69.758 V 71.518 h 69.608 c 0,0 33.041,-22.511 49.087,-71.518"
             style="fill:#a47cd1;fill-opacity:1;fill-rule:nonzero;stroke:none"
             id="path10249" /></g><g
           id="g10251"
           transform="translate(347.2197,460.3359)"><path
             d="m 0,0 c 0,0 58.293,46.9 113.011,-6.396 54.718,-53.296 72.637,-162.732 -28.447,-162.732 z"
             style="fill:#6a647f;fill-opacity:1;fill-rule:nonzero;stroke:none"
             id="path10253" /></g><g
           id="g10255"
           transform="translate(164.7803,460.3359)"><path
             d="m 0,0 c 0,0 -58.293,46.9 -113.011,-6.396 -54.718,-53.296 -72.637,-162.732 28.447,-162.732 z"
             style="fill:#6a647f;fill-opacity:1;fill-rule:nonzero;stroke:none"
             id="path10257" /></g><g
           id="g10259"
           transform="translate(248.8623,143.5771)"><path
             d="m 0,0 c 2.81,0 5.589,-0.149 8.338,-0.427 l -1.2,3.083 h -69.609 c 0,0 -33.041,-22.51 -49.087,-71.517 l 17.413,-19.745 C -84.486,-37.896 -46.006,0 0,0"
             style="fill:#a47cd1;fill-opacity:1;fill-rule:nonzero;stroke:none"
             id="path10261" /></g><g
           id="g10263"
           transform="translate(256,492.7754)"><path
             d="m 0,0 c -106.043,0 -192.316,-86.272 -192.316,-192.316 0,-106.043 86.273,-192.316 192.316,-192.316 106.043,0 192.316,86.273 192.316,192.316 C 192.316,-86.272 106.043,0 0,0"
             style="fill:#e7886e;fill-opacity:1;fill-rule:nonzero;stroke:none"
             id="path10265" /></g><g
           id="g10267"
           transform="translate(256,164.0713)"><path
             d="m 0,0 c -73.68,0 -133.623,31.827 -133.623,105.508 0,73.679 59.943,77.391 133.623,77.391 73.68,0 133.623,-3.712 133.623,-77.391 C 133.623,31.827 73.68,0 0,0"
             style="fill:#ffd3bc;fill-opacity:1;fill-rule:nonzero;stroke:none"
             id="path10269" /></g><g
           id="g10271"
           transform="translate(107.3047,287.8955)"><path
             d="M 0,0 C 0,94.165 52.112,174.192 124.687,203.384 29.933,191.53 -43.621,110.478 -43.621,12.563 c 0,-73.74 41.725,-137.908 102.799,-170.167 C 22.778,-118.31 0,-62.246 0,0"
             style="fill:#e27858;fill-opacity:1;fill-rule:nonzero;stroke:none"
             id="path10273" /></g><g
           id="g10275"
           transform="translate(195.1299,389.6875)"><path
             d="m 0,0 c -0.034,-15.654 -15.997,-28.31 -35.655,-28.267 -19.658,0.043 -35.566,12.769 -35.531,28.423 0.035,15.655 15.998,28.31 35.655,28.267 C -15.873,28.38 0.034,15.654 0,0"
             style="fill:#ffffff;fill-opacity:1;fill-rule:nonzero;stroke:none"
             id="path10277" /></g><g
           id="g10279"
           transform="translate(316.8701,389.4219)"><path
             d="M 0,0 C -0.034,-15.654 15.874,-28.38 35.531,-28.423 55.188,-28.466 71.152,-15.811 71.187,-0.156 71.221,15.498 55.313,28.224 35.655,28.267 15.998,28.31 0.034,15.654 0,0"
             style="fill:#ffffff;fill-opacity:1;fill-rule:nonzero;stroke:none"
             id="path10281" /></g><g
           id="g10283"
           transform="translate(186.2412,74.7158)"><path
             d="m 0,0 v -55.491 h -57.489 c 0,21.311 3.397,39.764 8.552,55.491 z"
             style="fill:#ffd3bc;fill-opacity:1;fill-rule:nonzero;stroke:none"
             id="path10285" /></g><g
           id="g10287"
           transform="translate(383.248,19.2246)"><path
             d="M 0,0 H -57.489 V 55.491 H -8.553 C -3.397,39.765 0,21.312 0,0"
             style="fill:#ffd3bc;fill-opacity:1;fill-rule:nonzero;stroke:none"
             id="path10289" /></g><g
           id="g10291"
           transform="translate(152.377,30.0332)"><path
             d="m 0,0 c 0,15.865 2.77,30.969 7.764,44.683 h -22.836 c -5.156,-15.726 -8.553,-34.18 -8.553,-55.492 H 0.438 C 0.152,-7.25 0,-3.646 0,0"
             style="fill:#ffbe9c;fill-opacity:1;fill-rule:nonzero;stroke:none"
             id="path10293" /></g><g
           id="g10295"
           transform="translate(256,164.0713)"><path
             d="m 0,0 c -73.68,0 -133.623,31.827 -133.623,105.508 0,73.679 59.943,77.391 133.623,77.391 73.68,0 133.623,-3.712 133.623,-77.391 C 133.623,31.827 73.68,0 0,0 Z"
             style="fill:none;stroke:#000000;stroke-width:15;stroke-linecap:round;stroke-linejoin:round;stroke-miterlimit:10;stroke-dasharray:none;stroke-opacity:1"
             id="path10297" /></g><g
           id="g10299"
           transform="translate(172.3467,275.1553)"><path
             d="M 0,0 V -16.074"
             style="fill:none;stroke:#000000;stroke-width:15;stroke-linecap:round;stroke-linejoin:round;stroke-miterlimit:10;stroke-dasharray:none;stroke-opacity:1"
             id="path10301" /></g><g
           id="g10303"
           transform="translate(339.6533,275.1553)"><path
             d="M 0,0 V -16.074"
             style="fill:none;stroke:#000000;stroke-width:15;stroke-linecap:round;stroke-linejoin:round;stroke-miterlimit:10;stroke-dasharray:none;stroke-opacity:1"
             id="path10305" /></g><g
           id="g10307"
           transform="translate(233.9453,259.5596)"><path
             d="m 0,0 c 5.362,-6.153 13.252,-10.048 22.055,-10.048 8.803,0 16.692,3.895 22.054,10.048"
             style="fill:none;stroke:#000000;stroke-width:15;stroke-linecap:round;stroke-linejoin:round;stroke-miterlimit:10;stroke-dasharray:none;stroke-opacity:1"
             id="path10309" /></g><g
           id="g10311"
           transform="translate(180.6221,425.3428)"><path
             d="M 0,0 V -14.465"
             style="fill:none;stroke:#000000;stroke-width:15;stroke-linecap:round;stroke-linejoin:round;stroke-miterlimit:10;stroke-dasharray:none;stroke-opacity:1"
             id="path10313" /></g><g
           id="g10315"
           transform="translate(331.1699,425.3428)"><path
             d="M 0,0 V -14.465"
             style="fill:none;stroke:#000000;stroke-width:15;stroke-linecap:round;stroke-linejoin:round;stroke-miterlimit:10;stroke-dasharray:none;stroke-opacity:1"
             id="path10317" /></g><g
           id="g10319"
           transform="translate(256.1152,402.2539)"><path
             d="m 0,0 c 0,-9.623 -7.801,-17.425 -17.424,-17.425 -9.623,0 -17.425,7.802 -17.425,17.425"
             style="fill:none;stroke:#000000;stroke-width:15;stroke-linecap:round;stroke-linejoin:miter;stroke-miterlimit:10;stroke-dasharray:none;stroke-opacity:1"
             id="path10321" /></g><g
           id="g10323"
           transform="translate(290.9639,402.2539)"><path
             d="m 0,0 c 0,-9.623 -7.801,-17.425 -17.424,-17.425 -9.623,0 -17.425,7.802 -17.425,17.425"
             style="fill:none;stroke:#000000;stroke-width:15;stroke-linecap:round;stroke-linejoin:miter;stroke-miterlimit:10;stroke-dasharray:none;stroke-opacity:1"
             id="path10325" /></g><g
           id="g10327"
           transform="translate(104.8301,419.167)"><path
             d="m 0,0 c 14.489,18.409 32.244,34.134 52.41,46.252 -17.479,10.504 -62.571,30.306 -105.471,-11.48 -51.551,-50.212 -70.423,-150.243 12.1,-161.649 -0.113,2.71 -0.185,5.432 -0.185,8.169 0,33.844 8.809,65.658 24.223,93.311"
             style="fill:none;stroke:#000000;stroke-width:15;stroke-linecap:round;stroke-linejoin:round;stroke-miterlimit:10;stroke-dasharray:none;stroke-opacity:1"
             id="path10329" /></g><g
           id="g10331"
           transform="translate(460.2305,453.9395)"><path
             d="m 0,0 c -42.899,41.785 -87.991,21.983 -105.471,11.479 56.003,-33.654 93.557,-95 93.557,-164.959 0,-2.738 -0.071,-5.459 -0.186,-8.169 C 70.424,-150.242 51.552,-50.213 0,0 Z"
             style="fill:none;stroke:#000000;stroke-width:15;stroke-linecap:round;stroke-linejoin:round;stroke-miterlimit:10;stroke-dasharray:none;stroke-opacity:1"
             id="path10333" /></g><g
           id="g10335"
           transform="translate(407.6602,182.3379)"><path
             d="m 0,0 c 25.463,32.62 40.656,73.628 40.656,118.121 0,106.044 -86.273,192.316 -192.316,192.316 -61.276,0 -115.949,-28.806 -151.192,-73.587"
             style="fill:none;stroke:#000000;stroke-width:15;stroke-linecap:round;stroke-linejoin:round;stroke-miterlimit:10;stroke-dasharray:none;stroke-opacity:1"
             id="path10337" /></g><g
           id="g10339"
           transform="translate(87.8965,393.7803)"><path
             d="m 0,0 c -15.414,-27.654 -24.213,-59.478 -24.213,-93.321 0,-106.043 86.274,-192.317 192.317,-192.317 50.765,0 96.991,19.782 131.399,52.03"
             style="fill:none;stroke:#000000;stroke-width:15;stroke-linecap:round;stroke-linejoin:round;stroke-miterlimit:10;stroke-dasharray:none;stroke-opacity:1"
             id="path10341" /></g><g
           id="g10343"
           transform="translate(168.2949,129.334)"><path
             d="m 0,0 c -10.353,-11.744 -22.854,-29.769 -30.99,-54.618 h 48.936 v -55.491 h 69.759 v 88.918 C 56.132,-21.191 26.312,-13.54 0,0 Z"
             style="fill:none;stroke:#000000;stroke-width:15;stroke-linecap:round;stroke-linejoin:round;stroke-miterlimit:10;stroke-dasharray:none;stroke-opacity:1"
             id="path10345" /></g><g
           id="g10347"
           transform="translate(186.2412,74.7158)"><path
             d="m 0,0 v -55.491 h -57.489 c 0,21.311 3.396,39.764 8.552,55.491 z"
             style="fill:none;stroke:#000000;stroke-width:15;stroke-linecap:round;stroke-linejoin:round;stroke-miterlimit:10;stroke-dasharray:none;stroke-opacity:1"
             id="path10349" /></g><g
           id="g10351"
           transform="translate(325.7588,74.7158)"><path
             d="M 0,0 H 48.937 C 40.801,24.85 28.299,42.874 17.946,54.618 -8.366,41.078 -38.186,33.427 -69.759,33.427 V -55.491 H 0 Z"
             style="fill:none;stroke:#000000;stroke-width:15;stroke-linecap:round;stroke-linejoin:round;stroke-miterlimit:10;stroke-dasharray:none;stroke-opacity:1"
             id="path10353" /></g><g
           id="g10355"
           transform="translate(383.248,19.2246)"><path
             d="M 0,0 H -57.489 V 55.491 H -8.553 C -3.397,39.765 0,21.312 0,0 Z"
             style="fill:none;stroke:#000000;stroke-width:15;stroke-linecap:round;stroke-linejoin:round;stroke-miterlimit:10;stroke-dasharray:none;stroke-opacity:1"
             id="path10357" /></g></g></g></g></svg>
