<svg height="512" viewBox="0 0 64 64" width="512" xmlns="http://www.w3.org/2000/svg"><g id="Layer_9" data-name="Layer 9"><path d="m17.3 44h-1.3a3 3 0 0 0 -3 3 3 3 0 0 0 3 3h1.3" fill="#ceb3b2"/><path d="m46.7 44h1.3a3 3 0 0 1 3 3 3 3 0 0 1 -3 3h-1.3" fill="#ceb3b2"/><circle cx="32" cy="47" fill="#e4c1bf" r="15"/><path d="m32 32a14.938 14.938 0 0 0 -5.631 1.1 14.989 14.989 0 0 0 13.262 26.8 14.989 14.989 0 0 0 -7.631-27.9z" fill="#fce2d8"/><path d="m4 17.173v-7.173a8 8 0 0 1 8-8h6a4 4 0 0 1 4 4 4 4 0 0 1 4 4v7.173" fill="#d3ac54"/><path d="m26 10a4 4 0 0 0 -4-4 4 4 0 0 0 -4-4h-6a7.955 7.955 0 0 0 -4.78 1.6 7.949 7.949 0 0 0 -1.22 4.227 7.172 7.172 0 0 0 7.173 7.173h12.827z" fill="#e5c77f"/><path d="m58 16v-1.211a6.788 6.788 0 0 0 -6.789-6.789h-8.383a6.826 6.826 0 0 1 -4.828-2v1.528a18.932 18.932 0 0 0 2 8.472" fill="#4d4d4d"/><path d="m58 16v6a9 9 0 0 1 -9 9 9 9 0 0 1 -9-9v-6a34.107 34.107 0 0 0 13.434-2.757l.566-.243z" fill="#ba9897"/><path d="m53.434 13.243a34.119 34.119 0 0 1 -12.434 2.732v5.025a8.993 8.993 0 0 0 14.84 6.84 8.955 8.955 0 0 0 2.16-5.84v-6l-4-3z" fill="#ceb3b2"/><path d="m24 16v6a9 9 0 0 1 -9 9 9 9 0 0 1 -9-9v-6h5.615a7.953 7.953 0 0 0 7.385-5z" fill="#e4c1bf"/><path d="m11.614 16h-4.614v5a8.994 8.994 0 0 0 14.836 6.844 8.958 8.958 0 0 0 2.164-5.844v-6l-5-5a7.953 7.953 0 0 1 -7.386 5z" fill="#fce2d8"/><path d="m6 17h-1a3 3 0 0 0 -3 3 3 3 0 0 0 3 3h1.055" fill="#ceb3b2"/><path d="m24 17h1a3 3 0 0 1 3 3 3 3 0 0 1 -3 3h-1.056" fill="#ceb3b2"/><g fill="#e4c1bf"><path d="m12.292 21.707-.292-.293a1.447 1.447 0 0 0 -2 0l-.292.292-1.416-1.413.292-.293a3.5 3.5 0 0 1 4.829 0l.294.293z"/><path d="m20.292 21.707-.292-.293a1.447 1.447 0 0 0 -2 0l-.292.292-1.415-1.414.291-.292a3.5 3.5 0 0 1 4.829 0l.294.293z"/><path d="m15 28a4.215 4.215 0 0 1 -3.789-2.341l-.106-.213 1.791-.892.105.211a2.236 2.236 0 0 0 4 0l.105-.212 1.789.895-.105.211a4.212 4.212 0 0 1 -3.79 2.341z"/></g><path d="m40 17h-1a3 3 0 0 0 -3 3 3 3 0 0 0 3 3h1.055" fill="#a08484"/><path d="m58 17h1a3 3 0 0 1 3 3 3 3 0 0 1 -3 3h-1.055" fill="#a08484"/><path d="m46.293 21.707-.293-.293a1.465 1.465 0 0 0 -2 0l-.293.293-1.414-1.414.293-.293a3.5 3.5 0 0 1 4.828 0l.293.293z" fill="#ba9897"/><path d="m54.293 21.707-.293-.293a1.465 1.465 0 0 0 -2 0l-.293.293-1.414-1.414.293-.293a3.5 3.5 0 0 1 4.828 0l.293.293z" fill="#ba9897"/><path d="m49 28a4.213 4.213 0 0 1 -3.789-2.341l-.1-.211 1.788-.9.106.211a2.236 2.236 0 0 0 4 0l.1-.212 1.789.895-.1.211a4.212 4.212 0 0 1 -3.794 2.347z" fill="#ba9897"/><path d="m28.293 45.707-.939-.939a2.684 2.684 0 0 0 -3.708 0l-.939.939-1.414-1.414.939-.939a4.621 4.621 0 0 1 6.536 0l.939.939z" fill="#e4c1bf"/><path d="m41.293 45.707-.939-.939a2.684 2.684 0 0 0 -3.708 0l-.939.939-1.414-1.414.939-.939a4.621 4.621 0 0 1 6.536 0l.939.939z" fill="#e4c1bf"/><path d="m32 58a6.592 6.592 0 0 1 -5.5-2.941l-.336-.5 1.664-1.11.336.5a4.605 4.605 0 0 0 7.664 0l.336-.5 1.664 1.11-.336.5a6.592 6.592 0 0 1 -5.492 2.941z" fill="#e4c1bf"/><path d="m35 32.3v3.7a3 3 0 0 1 -6 0h-2a5 5 0 0 0 10 0v-3.128a14.93 14.93 0 0 0 -2-.572z" fill="#d3ac54"/></g></svg>