<svg id="Icons" height="300" viewBox="0 0 60 60" width="300" xmlns="http://www.w3.org/2000/svg" version="1.1" xmlns:xlink="http://www.w3.org/1999/xlink" xmlns:svgjs="http://svgjs.dev/svgjs"><g width="100%" height="100%" transform="matrix(1,0,0,1,0,0)"><path d="m50.31 29.82a10.773 10.773 0 0 0 4.19-1.11.693.693 0 0 1 .93.92 21.931 21.931 0 0 1 -4.56 6.3c-4.53 4.53-11.38 3.73-11.38 3.73a11.648 11.648 0 0 0 5.67 1.66.687.687 0 0 1 .41 1.22 28 28 0 0 1 -2.57 1.8c-3.86 2.4-9.98 4.86-16.41 2.1-3.61-8.32 2.55-17.98 5.4-21.8a.687.687 0 0 1 1.23.38 11.656 11.656 0 0 0 1.67 5.54 12.308 12.308 0 0 1 3.75-9.84 14.014 14.014 0 0 1 4.36-2.9c5.07-2.24 10.77-2.27 13.87-8.43a.688.688 0 0 1 1.28.1 17.676 17.676 0 0 1 -2 15.09 16.2 16.2 0 0 1 -5.84 5.24z" fill="#ffd93d" fill-opacity="1" data-original-color="#ffdc00ff" stroke="none" stroke-opacity="1" style=""/><path d="m31.89 30.56a11.79 11.79 0 0 1 1.082-6.023.676.676 0 0 0 -.982.1c-.449.6-.981 1.35-1.544 2.215a11.413 11.413 0 0 0 1.444 3.708z" fill="#fec108" fill-opacity="1" data-original-color="#fec108ff" stroke="none" stroke-opacity="1"/><path d="m58.15 9.49a.688.688 0 0 0 -1.28-.1 12.4 12.4 0 0 1 -1.244 1.99 17.313 17.313 0 0 1 -2.476 13.2 16.2 16.2 0 0 1 -5.84 5.24 10.773 10.773 0 0 0 4.19-1.11.666.666 0 0 1 .6 0 15.806 15.806 0 0 0 4.05-4.128 17.676 17.676 0 0 0 2-15.092z" fill="#fec108" fill-opacity="1" data-original-color="#fec108ff" stroke="none" stroke-opacity="1"/><path d="m54.5 28.71a9.955 9.955 0 0 1 -2.02.751.69.69 0 0 1 -.05.169 21.931 21.931 0 0 1 -4.56 6.3c-4.53 4.53-11.38 3.73-11.38 3.73a11.648 11.648 0 0 0 5.67 1.66.687.687 0 0 1 .41 1.22 28 28 0 0 1 -2.57 1.8 21.219 21.219 0 0 1 -8.986 3.237c4.737.469 9.027-1.4 11.986-3.237a28 28 0 0 0 2.57-1.8.687.687 0 0 0 -.41-1.22 11.648 11.648 0 0 1 -5.67-1.66s6.85.8 11.38-3.73a21.931 21.931 0 0 0 4.56-6.3.693.693 0 0 0 -.93-.92z" fill="#fec108" fill-opacity="1" data-original-color="#fec108ff" stroke="none" stroke-opacity="1"/><path d="m38.64 20.72a12.308 12.308 0 0 0 -3.75 9.84 11.656 11.656 0 0 1 -1.67-5.54.687.687 0 0 0 -1.23-.38c-2.85 3.82-9.01 13.48-5.4 21.8 6.43 2.76 12.55.3 16.41-2.1v12.66a2.006 2.006 0 0 1 -2 2h-38a2.006 2.006 0 0 1 -2-2v-54a2.006 2.006 0 0 1 2-2h32v6a2.006 2.006 0 0 0 2 2h6v8.82a14.014 14.014 0 0 0 -4.36 2.9z" fill="#f5f5f5" fill-opacity="1" data-original-color="#f5f5f5ff" stroke="none" stroke-opacity="1" style=""/><g fill="#cfd8dc"><path d="m30.446 26.855a12.307 12.307 0 0 1 -.226-1.835.687.687 0 0 0 -1.23-.38c-2.85 3.82-9.01 13.48-5.4 21.8a14.915 14.915 0 0 0 7.424 1.137 14.818 14.818 0 0 1 -4.424-1.137c-3.041-7.008.85-14.967 3.856-19.585z" fill="#cfd8dc" fill-opacity="1" data-original-color="#cfd8dcff" stroke="none" stroke-opacity="1" style=""/><path d="m34 9h3a2.006 2.006 0 0 1 -2-2v-6h-3v6a2.006 2.006 0 0 0 2 2z" fill="#cfd8dc" fill-opacity="1" data-original-color="#cfd8dcff" stroke="none" stroke-opacity="1" style=""/><path d="m40 57a2.006 2.006 0 0 1 -2 2h3a2.006 2.006 0 0 0 2-2v-12.66a25.435 25.435 0 0 1 -3 1.6z" fill="#cfd8dc" fill-opacity="1" data-original-color="#cfd8dcff" stroke="none" stroke-opacity="1" style=""/><path d="m40 9v8.82a14.014 14.014 0 0 0 -4.36 2.9 12.984 12.984 0 0 0 -2.668 3.817.654.654 0 0 1 .248.483 11.656 11.656 0 0 0 1.67 5.54 12.308 12.308 0 0 1 3.75-9.84 14.014 14.014 0 0 1 4.36-2.9v-8.82z" fill="#cfd8dc" fill-opacity="1" data-original-color="#cfd8dcff" stroke="none" stroke-opacity="1" style=""/></g><path d="m43 9h-6a2.006 2.006 0 0 1 -2-2v-6z" fill="#9e9e9e" fill-opacity="1" data-original-color="#9e9e9eff" stroke="none" stroke-opacity="1" style=""/><path d="m57.638 8.006a1.7 1.7 0 0 0 -1.661.934c-2.111 4.2-5.437 5.262-9.288 6.491-.893.284-1.793.578-2.689.91v-7.341a1 1 0 0 0 -.293-.707l-8-8a1 1 0 0 0 -.707-.293h-32a3 3 0 0 0 -3 3v54a3 3 0 0 0 3 3h38a3 3 0 0 0 3-3v-12.115c.881-.569 1.623-1.115 2.193-1.565a1.687 1.687 0 0 0 -1-3c-.164 0-.339-.013-.524-.028a13.949 13.949 0 0 0 6.916-3.657 23.018 23.018 0 0 0 4.757-6.577 1.7 1.7 0 0 0 -1.414-2.416 16.516 16.516 0 0 0 2.056-2.508 18.553 18.553 0 0 0 2.116-15.934 1.677 1.677 0 0 0 -1.462-1.194zm-21.638-4.592 4.586 4.586h-3.586a1 1 0 0 1 -1-1zm6 53.586a1 1 0 0 1 -1 1h-38a1 1 0 0 1 -1-1v-54a1 1 0 0 1 1-1h31v5a3 3 0 0 0 3 3h5v7.183a14.619 14.619 0 0 0 -4.061 2.824 13.8 13.8 0 0 0 -3.613 6.071c-.059-.405-.091-.778-.106-1.108a1.67 1.67 0 0 0 -1.2-1.529 1.651 1.651 0 0 0 -1.826.605c-2.86 3.823-9.024 13.495-5.776 22.139l-3.119 3.107a1 1 0 1 0 1.412 1.416l3.128-3.117a15.735 15.735 0 0 0 5.632 1.059 20.532 20.532 0 0 0 9.529-2.593zm13.314-32.975a15.129 15.129 0 0 1 -5.471 4.915 1 1 0 0 0 .54 1.88 12.268 12.268 0 0 0 3.764-.843 22.023 22.023 0 0 1 -3.98 5.244c-4.128 4.123-10.5 3.452-10.566 3.449a.987.987 0 0 0 -1.059.672 1 1 0 0 0 .429 1.178 12.639 12.639 0 0 0 5.308 1.747c-3.442 2.556-9.426 5.774-15.88 3.765l21.355-21.276a1 1 0 1 0 -1.412-1.416l-21.342 21.26c-2.04-7.046 2.59-14.9 5.29-18.672a12.642 12.642 0 0 0 1.74 5.146 1 1 0 0 0 1.845-.662 11.229 11.229 0 0 1 3.476-8.989c2.291-2.283 5.038-3.159 7.946-4.087 3.737-1.192 7.6-2.423 10.1-6.819a16.427 16.427 0 0 1 -2.083 13.508z" fill="#000000" fill-opacity="1" data-original-color="#000000ff" stroke="none" stroke-opacity="1" style=""/><path d="m7 15h30a1 1 0 0 0 0-2h-30a1 1 0 0 0 0 2z" fill="#000000" fill-opacity="1" data-original-color="#000000ff" stroke="none" stroke-opacity="1" style=""/><path d="m7 21h26a1 1 0 0 0 0-2h-26a1 1 0 0 0 0 2z" fill="#000000" fill-opacity="1" data-original-color="#000000ff" stroke="none" stroke-opacity="1" style=""/><path d="m7 27h19a1 1 0 0 0 0-2h-19a1 1 0 0 0 0 2z" fill="#000000" fill-opacity="1" data-original-color="#000000ff" stroke="none" stroke-opacity="1" style=""/><path d="m7 33h16a1 1 0 0 0 0-2h-16a1 1 0 0 0 0 2z" fill="#000000" fill-opacity="1" data-original-color="#000000ff" stroke="none" stroke-opacity="1" style=""/><path d="m7 39h14a1 1 0 0 0 0-2h-14a1 1 0 0 0 0 2z" fill="#000000" fill-opacity="1" data-original-color="#000000ff" stroke="none" stroke-opacity="1" style=""/><path d="m21 43h-14a1 1 0 0 0 0 2h14a1 1 0 0 0 0-2z" fill="#000000" fill-opacity="1" data-original-color="#000000ff" stroke="none" stroke-opacity="1" style=""/><path d="m18 49h-11a1 1 0 0 0 0 2h11a1 1 0 0 0 0-2z" fill="#000000" fill-opacity="1" data-original-color="#000000ff" stroke="none" stroke-opacity="1" style=""/></g></svg>