<svg height="512pt" viewBox="-11 0 512 512" width="512pt" xmlns="http://www.w3.org/2000/svg"><path d="m423.554688 252.507812c-16.1875 0-29.3125 13.121094-29.3125 29.308594 0 90.464844-73.597657 164.0625-164.058594 164.0625-90.464844 0-164.0625-73.597656-164.0625-164.0625 0-79.875 57.378906-146.585937 133.082031-161.113281-10.449219 11.503906-10.121094 29.308594.988281 40.414063 5.722656 5.722656 13.222656 8.585937 20.722656 8.585937 7.503907 0 15.003907-2.863281 20.726563-8.585937l51.792969-51.789063c11.445312-11.445313 11.445312-30.007813 0-41.453125l-51.792969-51.789062c-11.445313-11.445313-30.003906-11.445313-41.449219 0-11.449218 11.445312-11.449218 30.003906 0 41.449218l3.210938 3.214844c-110.207032 13.269531-195.902344 107.34375-195.902344 221.066406 0 122.789063 99.894531 222.683594 222.683594 222.683594 122.785156 0 222.679687-99.894531 222.679687-222.683594 0-16.1875-13.121093-29.308594-29.308593-29.308594zm0 0" fill="#ffc843"/><path d="m226.859375 351.535156c-7.503906 0-15.003906-2.859375-20.726563-8.582031l-62.726562-62.726563c-11.445312-11.445312-11.445312-30.003906 0-41.449218 11.445312-11.449219 30.003906-11.449219 41.453125-.003906l42 42 206.195313-206.195313c11.445312-11.445313 30.003906-11.445313 41.449218 0 11.445313 11.445313 11.445313 30.007813 0 41.453125l-226.917968 226.921875c-5.726563 5.722656-13.226563 8.582031-20.726563 8.582031zm0 0" fill="#76ffd9"/><g fill="#434c54"><path d="m230.183594 512c-51.847656 0-100.839844-16.902344-141.675782-48.882812-3.261718-2.554688-3.835937-7.269532-1.28125-10.53125 2.554688-3.261719 7.265626-3.832032 10.527344-1.28125 38.175782 29.894531 83.964844 45.695312 132.429688 45.695312 118.652344 0 215.179687-96.53125 215.179687-215.183594 0-12.027344-9.78125-21.808594-21.808593-21.808594-12.027344 0-21.8125 9.78125-21.8125 21.808594 0 94.597656-76.960938 171.5625-171.558594 171.5625-94.601563 0-171.5625-76.964844-171.5625-171.5625 0-82.148437 58.527344-153.003906 139.167968-168.480468 3.171876-.605469 6.375.882812 7.953126 3.695312 1.582031 2.816406 1.183593 6.324219-.984376 8.714844-7.828124 8.617187-7.503906 21.824218.734376 30.066406 4.121093 4.121094 9.597656 6.386719 15.421874 6.386719 5.828126 0 11.304688-2.265625 15.425782-6.386719l51.789062-51.789062c4.121094-4.121094 6.386719-9.597657 6.386719-15.421876 0-5.828124-2.269531-11.304687-6.386719-15.421874l-51.789062-51.792969c-4.121094-4.117188-9.597656-6.386719-15.425782-6.386719-5.824218 0-11.300781 2.269531-15.421874 6.386719-4.117188 4.121093-6.386719 9.597656-6.386719 15.421875 0 5.828125 2.269531 11.304687 6.386719 15.421875l3.214843 3.214843c2.03125 2.03125 2.722657 5.042969 1.785157 7.753907-.9375 2.714843-3.339844 4.652343-6.191407 4.996093-107.917969 12.992188-189.300781 104.832032-189.300781 213.621094 0 55.128906 20.917969 107.605469 58.902344 147.757813 2.847656 3.007812 2.714844 7.753906-.292969 10.601562-3.011719 2.847657-7.757813 2.714844-10.605469-.292969-40.628906-42.953124-63.003906-99.085937-63.003906-158.066406 0-111.8125 80.378906-206.886718 189.078125-226.496094-3.242187-5.558593-4.972656-11.902343-4.972656-18.507812 0-9.835938 3.828125-19.078125 10.78125-26.03125s16.195312-10.78125 26.027343-10.78125c9.835938 0 19.078126 3.828125 26.03125 10.78125l51.789063 51.789062c6.953125 6.953126 10.78125 16.199219 10.78125 26.03125 0 9.832032-3.828125 19.078126-10.78125 26.027344l-51.789063 51.792969c-6.953124 6.949219-16.199218 10.78125-26.03125 10.78125-9.828124 0-19.074218-3.832031-26.027343-10.78125-9.355469-9.355469-12.664063-22.507813-9.808594-34.542969-65.449219 19.652344-111.457031 80.355469-111.457031 149.9375 0 86.328125 70.234375 156.5625 156.5625 156.5625s156.558594-70.234375 156.558594-156.5625c0-20.296875 16.515624-36.808594 36.8125-36.808594 20.296874 0 36.808593 16.511719 36.808593 36.808594 0 126.925782-103.257812 230.183594-230.179687 230.183594zm0 0"/><path d="m226.859375 359.035156c-9.835937 0-19.078125-3.828125-26.03125-10.78125l-62.722656-62.722656c-14.355469-14.355469-14.355469-37.707031 0-52.058594 14.351562-14.355468 37.707031-14.351562 52.054687 0l36.699219 36.695313 23.785156-23.785157c2.929688-2.929687 7.679688-2.929687 10.605469 0 2.929688 2.929688 2.929688 7.675782 0 10.605469l-29.089844 29.089844c-2.929687 2.929687-7.675781 2.929687-10.605468 0l-42-42c-4.117188-4.117187-9.59375-6.386719-15.421876-6.386719-5.824218 0-11.300781 2.269532-15.421874 6.386719-8.503907 8.503906-8.503907 22.339844 0 30.84375l62.726562 62.726563c4.117188 4.121093 9.59375 6.386718 15.421875 6.386718 5.824219 0 11.300781-2.269531 15.421875-6.386718l170.3125-170.3125c2.925781-2.929688 7.675781-2.929688 10.605469 0 2.929687 2.929687 2.929687 7.679687 0 10.605468l-170.3125 170.3125c-6.953125 6.953125-16.195313 10.78125-26.027344 10.78125zm0 0"/><path d="m279.464844 235.667969c-1.917969 0-3.839844-.734375-5.304688-2.199219-2.925781-2.929688-2.925781-7.675781 0-10.605469l153.589844-153.585937c6.953125-6.953125 16.195312-10.785156 26.027344-10.785156h.003906c9.832031 0 19.074219 3.832031 26.027344 10.785156 14.351562 14.351562 14.351562 37.703125 0 52.058594l-33.066406 33.0625c-2.929688 2.929687-7.675782 2.929687-10.605469 0-2.929688-2.929688-2.929688-7.675782 0-10.605469l33.066406-33.066407c8.503906-8.503906 8.503906-22.339843 0-30.84375-4.121094-4.121093-9.597656-6.386718-15.421875-6.386718-5.828125 0-11.304688 2.269531-15.425781 6.386718l-153.585938 153.585938c-1.464843 1.464844-3.386719 2.199219-5.304687 2.199219zm0 0"/></g><path d="m245.292969 389.636719h-35.304688c-4.140625 0-7.5-3.359375-7.5-7.5 0-4.144531 3.359375-7.5 7.5-7.5h35.304688c4.144531 0 7.5 3.355469 7.5 7.5 0 4.140625-3.355469 7.5-7.5 7.5zm0 0" fill="#5de0bf"/><path d="m245.292969 414.441406h-35.304688c-4.140625 0-7.5-3.359375-7.5-7.5 0-4.144531 3.359375-7.5 7.5-7.5h35.304688c4.144531 0 7.5 3.355469 7.5 7.5 0 4.140625-3.355469 7.5-7.5 7.5zm0 0" fill="#5de0bf"/></svg>