<svg id="Icons" viewBox="0 0 60 60" xmlns="http://www.w3.org/2000/svg"><path d="m45 25.64v30.36a3 3 0 0 1 -3 3h-38a3 3 0 0 1 -3-3v-38a3 3 0 0 1 3-3h30.36z" fill="#e6ebef"/><path d="m13.82 40.23 2.29-6.12a7.058 7.058 0 0 1 1.57-2.43l.01-.01 7.31 3.33 3.33 7.31-.01.01a7.058 7.058 0 0 1 -2.43 1.57l-6.12 2.29z" fill="#fbdeb4"/><path d="m49.61 21.03-21.28 21.28-10.64-10.64h.01l21.27-21.28 1.53.11 9.5 9.5z" fill="#fbac2e"/><path d="m58.12 12.52-4.25 4.25-1.87.23-9-9 .23-1.87 4.25-4.25a3.024 3.024 0 0 1 4.26 0l6.38 6.38a3.024 3.024 0 0 1 0 4.26z" fill="#f25362"/><path d="m19.77 46.18-7.33 2.75a1.063 1.063 0 0 1 -1.37-1.37l2.75-7.33a7.555 7.555 0 0 1 5.95 5.95z" fill="#5b696b"/><path d="m43.408 6.056h6.025v15.047h-6.025z" fill="#e6ebef" transform="matrix(.707 -.707 .707 .707 3.994 36.801)"/><path d="m4 60h38a4 4 0 0 0 4-4v-29.949l9.707-9.707a1 1 0 0 0 -1.414-1.414l-.428.427-9.222-9.222 3.547-3.548a2.016 2.016 0 0 1 2.844 0l6.379 6.38a2.015 2.015 0 0 1 0 2.843l-.483.482a1 1 0 1 0 1.412 1.416l.484-.483a4.015 4.015 0 0 0 0-5.672l-6.379-6.38a4.015 4.015 0 0 0 -5.672 0l-12.826 12.827h-29.949a4 4 0 0 0 -4 4v38a4 4 0 0 0 4 4zm10.435-18.563a6.506 6.506 0 0 1 4.128 4.128l-6.471 2.425-.082-.082zm6 3.425a8.52 8.52 0 0 0 -5.3-5.3l1.911-5.1a5.932 5.932 0 0 1 .722-1.31l9.076 9.077a5.9 5.9 0 0 1 -1.3.718zm-1.325-13.195 19.863-19.867 3.9 3.9-19.858 19.871zm9.223 9.223-3.9-3.905 19.858-19.862 3.9 3.9zm24.118-24.119-2.842 2.842-9.222-9.223 2.842-2.841zm-50.451 1.229a2 2 0 0 1 2-2h27.949l-14.977 14.978a7.857 7.857 0 0 0 -1.794 2.778l-5.038 13.444a2.053 2.053 0 0 0 2.653 2.665l13.458-5.044a7.842 7.842 0 0 0 2.771-1.791l14.978-14.979v27.949a2 2 0 0 1 -2 2h-38a2 2 0 0 1 -2-2z" fill="#373737"/></svg>