<svg id="Layer_1" enable-background="new 0 0 512 512" viewBox="0 0 512 512" xmlns="http://www.w3.org/2000/svg"><g clip-rule="evenodd" fill-rule="evenodd"><path d="m50.67 335.56h87.36v122.26c0 13.75-9.84 25-21.86 25-11.99 0-21.83-11.25-21.83-25 0 13.75-9.84 25-21.86 25-11.99 0-21.83-11.25-21.83-25v-122.26z" fill="#b7812c"/><path d="m144.33 218.91h-64.03c-19.76 0-35.91 16.16-35.91 35.92v79.91c0 5.7 4.68 10.37 10.37 10.37h79.17c5.73 0 10.4-4.68 10.4-10.37v-78.12l62.59-35.35c6.63-3.74 37.45-31.61 44.82-39.6 5.47-5.9 5.13-15.11-.79-20.58-5.9-5.47-15.11-5.1-20.58.79l-39.75 35.12z" fill="#81479a"/><path d="m144.33 218.91h-61.94c-.14 2.07-.2 4.17-.2 6.26 0 43.14 25.43 80.33 62.14 97.4v-65.96l62.59-35.35c6.63-3.74 37.45-31.61 44.82-39.6 5.47-5.9 5.13-15.11-.79-20.58-5.9-5.47-15.11-5.1-20.58.79l-39.75 35.13z" fill="#8d5aa5"/><path d="m101.75 141.07c-22.82 0-41.3 18.48-41.3 41.3s18.48 41.3 41.3 41.3 41.3-18.48 41.3-41.3-18.48-41.3-41.3-41.3z" fill="#eaa377"/><path d="m101.75 141.07c-6.77 0-13.18 1.64-18.82 4.54-3.29 5.92-5.16 12.73-5.16 19.98 0 22.82 18.48 41.33 41.3 41.33 6.77 0 13.18-1.64 18.82-4.54 3.29-5.92 5.16-12.76 5.16-20.01 0-22.81-18.48-41.3-41.3-41.3z" fill="#eeb491"/><path d="m101.75 141.07c-22.82 0-41.3 18.48-41.3 41.3 0 7.8 2.15 15.08 5.9 21.32 2.89-9.1 7.68-30.73 23.58-30.22 11.76.4 37.64-3.77 42.63-18.6-7.56-8.47-18.56-13.8-30.81-13.8z" fill="#fdb614"/><path d="m296.92 66.38c26.73 0 48.42 21.69 48.42 48.42 0 38.13-24.18 36.43-27.69 65.82h-41.45c-3.54-29.4-27.69-27.69-27.69-65.82-.01-26.73 21.68-48.42 48.41-48.42z" fill="#fbbd13"/><path d="m296.44 180.62h-20.24c-3.54-29.4-27.69-27.69-27.69-65.82 0-16.3 8.05-30.73 20.44-39.51 1.62-.17 3.26-.26 4.93-.26 26.73 0 48.42 21.69 48.42 48.44-.01 33.93-19.17 36.28-25.86 57.15z" fill="#fcd800"/><path d="m282.86 210.1h28.12v7.37c0 4.05-3.32 7.37-7.37 7.37h-13.38c-4.05 0-7.37-3.32-7.37-7.37z" fill="#464647"/><path d="m310.98 217.47c0 4.05-3.32 7.37-7.37 7.37h-13.38c-4.05 0-7.37-3.32-7.37-7.37z" fill="#191919"/><path d="m282.41 210.1h29.03c4.05 0 7.37-3.32 7.37-7.37 0-4.05-3.32-7.37-7.37-7.37h-29.03c-4.05 0-7.37 3.32-7.37 7.37 0 4.05 3.31 7.37 7.37 7.37z" fill="#848585"/><path d="m282.41 210.1h29.03c4.05 0 7.37-3.32 7.37-7.37h-43.77c0 4.05 3.31 7.37 7.37 7.37z" fill="#686868"/><path d="m277.47 180.62h38.89c4.05 0 7.37 3.32 7.37 7.37 0 4.05-3.32 7.37-7.37 7.37h-38.89c-4.05 0-7.37-3.32-7.37-7.37 0-4.06 3.32-7.37 7.37-7.37z" fill="#848585"/><path d="m323.74 187.99c0 4.05-3.32 7.37-7.37 7.37h-38.89c-4.05 0-7.37-3.32-7.37-7.37z" fill="#686868"/><path d="m296.44 123.73c6.01 0 10.89 4.85 10.89 10.86s-4.88 10.89-10.89 10.89c-5.98 0-10.86-4.88-10.86-10.89s4.88-10.86 10.86-10.86z" fill="#ee2624"/><path d="m348.68 421.48v-48.1c0-27.13-63.44-22.82-86.26-27.04-8.39-1.56-12.53-3.88-19.9-7.85v-55.5c0-7.4-5.98-13.41-13.41-13.41-7.4 0-13.41 6.01-13.41 13.41l.03 65.76c0 8.65 5.41 10.8 11.82 13.83l29.62 13.95v43.6c0 8.02 6.55 14.37 14.54 14.54l62.42 1.36c8 .16 14.55-6.53 14.55-14.55z" fill="#057a58"/><path d="m321.72 352.48c-19.02-4.65-45.58-3.63-59.3-6.15-8.39-1.56-12.53-3.88-19.9-7.85v-55.5c0-7.4-5.98-13.41-13.41-13.41-7.4 0-13.41 6.01-13.41 13.41l.03 65.76c0 8.65 5.41 10.8 11.82 13.83l29.62 13.95v43.6c0 2.27 1.13 4.22 3.09 5.39 1.96 1.13 4.2 1.16 6.18.06 24.95-13.87 44.62-46.33 55.28-73.09z" fill="#1c8769"/><path d="m291.73 288.65c-17.38 0-31.46 14.12-31.46 31.49s14.09 31.46 31.46 31.46c17.4 0 31.49-14.09 31.49-31.46s-14.08-31.49-31.49-31.49z" fill="#f3c7ad"/><path d="m291.73 288.65c-17.38 0-31.46 14.12-31.46 31.49 0 5.39 1.36 10.46 3.74 14.91 4.11 1.96 8.7 3.06 13.58 3.06 17.38 0 31.46-14.09 31.46-31.49 0-5.39-1.36-10.46-3.74-14.88-4.11-1.99-8.7-3.09-13.58-3.09z" fill="#f5d2bc"/><path d="m439.62 353.11h-49.32c-15.17 0-27.58 12.42-27.58 27.58v37.96c0 7.06 5.78 12.81 12.84 12.81h78.8c7.06 0 12.81-5.75 12.81-12.81v-37.96c0-15.17-12.39-27.58-27.55-27.58z" fill="#057a58"/><path d="m439.62 353.11h-49.32c-15.17 0-27.58 12.42-27.58 27.58v27.78h68.14c7.06 0 12.81-5.75 12.81-12.81v-37.96c0-1.47-.11-2.92-.34-4.34-1.22-.17-2.47-.25-3.71-.25z" fill="#1c8769"/><path d="m414.95 297.49c-16.81 0-30.42 13.63-30.42 30.42 0 16.81 13.61 30.44 30.42 30.44s30.42-13.63 30.42-30.44c0-16.79-13.61-30.42-30.42-30.42z" fill="#f3c7ad"/><path d="m414.95 297.49c-16.81 0-30.42 13.63-30.42 30.42 0 4.28.88 8.33 2.44 11.99 4.17 2.15 8.9 3.34 13.89 3.34 16.81 0 30.42-13.61 30.42-30.42 0-4.25-.88-8.31-2.44-11.99-4.16-2.12-8.9-3.34-13.89-3.34z" fill="#f5d2bc"/></g><path d="m391.4 277.25c2.01 3.26.99 7.57-2.27 9.58-3.29 2.04-7.6 1.02-9.61-2.27l-6.55-10.57c-2.01-3.26-.99-7.57 2.3-9.58 3.26-2.04 7.57-1.02 9.58 2.27zm38.78-.91c-.85 3.77-4.62 6.09-8.39 5.22-3.74-.88-6.09-4.62-5.22-8.39l2.86-12.1c.88-3.74 4.62-6.09 8.39-5.22 3.77.88 6.09 4.65 5.22 8.39zm-65.6 28.92c3.74.88 6.09 4.65 5.22 8.39-.88 3.77-4.65 6.12-8.39 5.24l-12.1-2.86c-3.77-.88-6.09-4.65-5.22-8.39.88-3.77 4.62-6.09 8.39-5.22zm50.37-.77c-20.81 0-31.27 25.28-16.55 40 14.66 14.66 39.97 4.34 39.97-16.55 0-12.96-10.49-23.45-23.42-23.45zm-26.47-3.03c14.63-14.6 38.32-14.6 52.92 0 12.05 12.05 14.48 30.78 5.78 45.5 15.53 3.51 26.99 17.43 26.99 33.73v37.96c0 10.91-8.9 19.81-19.81 19.81h-78.8c-10.91 0-19.81-8.9-19.81-19.81v-37.96c0-16.3 11.42-30.22 26.99-33.73-8.72-14.72-6.28-33.45 5.74-45.5zm45.55 58.65c-5.58 3.32-12.1 5.24-19.08 5.24s-13.49-1.93-19.08-5.24h-5.58c-11.31 0-20.58 9.27-20.58 20.58v37.96c0 3.17 2.64 5.81 5.84 5.81h4.45v-32.17c0-3.85 3.15-7 7-7 3.88 0 7 3.15 7 7v32.17h41.87v-32.17c0-3.85 3.15-7 7-7 3.88 0 7 3.15 7 7v32.17c3.49 0 6.35.54 8.59-1.7 1.05-1.05 1.7-2.52 1.7-4.11v-37.96c0-11.31-9.27-20.58-20.55-20.58zm-112.17 82.63c-2.07.62-2.86.17-4.31-.09l-45.98-1.02c-11.82-.26-21.4-9.67-21.4-21.51v-39.17l-25.6-12.05v-.03c-8.59-4.03-15.82-7-15.82-20.13l-.03-65.76h-.03c0-18.11 22.03-27.24 34.84-14.43 3.71 3.69 5.98 8.79 5.98 14.43v51.34c2.86 1.5 5.3 2.69 8.08 3.63-13.27-25.43 5.16-56.27 34.13-56.27 21.26 0 38.49 17.21 38.49 38.47 0 9.64-3.54 18.45-9.41 25.2 15.96 3.06 34.87 9.67 34.87 28.03v48.1c0 11.71-9.58 21.77-21.69 21.51zm-9.01-14.15v-34.38c0-3.85 3.15-7 7-7 3.88 0 7 3.15 7 7v34.67l7.6.17c-1.19-.06 2.41.48 4.99-2.15 1.45-1.45 2.21-3.26 2.27-5.41-.03.14-.03.6-.03 0v-48.1c0-4.76-4.05-8.14-10.12-10.63-7.57-3.09-17.89-4.76-28.46-5.84-3.6 1.13-7.4 1.73-11.37 1.73-5.98 0-11.68-1.39-16.72-3.83-2.27-.17-4.48-.37-6.72-.62-13.27-1.39-17.92-3.54-29.06-9.55-2.35-1.25-3.69-3.66-3.69-6.15h-.03v-55.5c0-5.7-6.92-8.53-10.91-4.54-1.16 1.16-1.9 2.78-1.9 4.54h-.03l.03 65.76c0 4.2 3.83 5.64 7.82 7.51l29.65 13.98c2.52 1.19 4 3.69 4 6.29v43.6c0 4.22 3.57 7.48 7.68 7.57zm-21.12-132.91c-21.74 0-32.68 26.39-17.29 41.78 15.36 15.36 41.78 4.42 41.78-17.32 0-13.52-10.97-24.46-24.49-24.46zm42.72 133.37c.06 0 .03 0 0 0zm7.26-7.57c0-.06 0-.03 0 0zm-37.79-371.97c0 3.85-3.15 7-7 7-3.88 0-7-3.15-7-7v-16.7c0-3.85 3.12-7 7-7 3.86 0 7 3.15 7 7zm60.38 74.39c-3.86 0-7-3.15-7-7s3.15-7 7-7h16.7c3.86 0 7 3.15 7 7 0 3.86-3.15 7-7 7zm-14.8-49.7c-2.72 2.72-7.14 2.72-9.89 0-2.72-2.75-2.72-7.17 0-9.92l11.79-11.79c2.75-2.72 7.17-2.72 9.92 0 2.72 2.75 2.72 7.17 0 9.89zm-119.96 35.69c3.86 0 7 3.15 7 7 0 3.86-3.15 7-7 7h-16.7c-3.86 0-7-3.15-7-7s3.15-7 7-7zm24.66-45.61c2.75 2.75 2.75 7.17 0 9.92-2.72 2.72-7.14 2.72-9.89 0l-11.79-11.82c-2.72-2.72-2.72-7.14 0-9.89 2.72-2.72 7.17-2.72 9.89 0zm42.24 52.44c15.87 0 23.87 19.28 12.64 30.5-1.59 1.62-3.52 2.92-5.64 3.8v22.59h8.33c6.04-26.16 26.56-26.05 26.56-58.82 0-22.88-18.54-41.41-41.41-41.41s-41.41 18.54-41.41 41.41c0 32.77 20.52 32.66 26.56 58.82h7.37v-22.59c-11.57-4.93-14.6-20.1-5.61-29.08 3.22-3.23 7.68-5.22 12.61-5.22zm2.75 15.14c-3.6-3.63-9.07 1.87-5.47 5.47s9.07-1.87 5.47-5.47zm26.22 44.99c7.11 5.78 7.09 16.58-.06 22.34 1.7 6.58-1.47 13.29-7.37 16.33 0 4.85-.54 8.42-4.22 12.1-2.61 2.61-6.18 4.22-10.15 4.22h-13.38c-7.91 0-14.37-6.46-14.37-14.37v-1.96c-5.9-3.03-9.07-9.75-7.4-16.33-7.11-5.75-7.14-16.58-.03-22.34-5.22-21.57-26.93-23.73-26.93-62.05 0-30.59 24.8-55.42 55.42-55.42s55.42 24.83 55.42 55.42c0 38.33-21.74 40.49-26.93 62.06zm-14.01 25.51h-29c-.28 0-.94.74.45.74h28.57c.47 0 .52-.74-.02-.74zm4.97-14.74h-38.89c-.48 0-.48.74 0 .74h38.89c.48 0 .48-.74 0-.74zm-12.39 29.48h-14.12c0 .2-.09.74.37.74l13.63-.11zm-252.6 72.93c0 1.56.37 2.58 1.02 3.86h.03l17.04 35.72c4.73 9.98 18.03 2.69 14-5.95l-16.1-33.62c-.45-.96-.68-1.98-.68-3h-.03v-34.1c0-3.85 3.15-7 7-7s7 3.15 7 7v32.57l15.65 32.65c2.89 6.69 2.21 14.06-1.42 19.96h39.03c1.84 0 3.4-1.5 3.4-3.37v-78.12c0-2.86 1.7-5.33 4.17-6.41l62.02-35.01-.03-.03c7.17-4.03 38.69-33.39 43.14-38.21 4.51-4.88.99-13.01-5.9-12.76-2.98.11-4.03 1.39-5.75 2.92l-39.74 35.09c-.51.45-1.05.82-1.64 1.11l-46.29 21.91c-.96.45-1.98.68-2.98.68h-21.62c-6.35 3.06-13.44 4.76-20.95 4.76s-14.63-1.7-20.95-4.76h-.5c-15.9 0-28.91 13.04-28.91 28.91v35.2zm6.78 48.08c-1.59-2.58-5.44-11.11-6.77-13.89v10.52c0 1.87 1.53 3.37 3.37 3.37zm9.32-157.27c4.51-8.02 11.37-14.71 22.65-14.34 8.05.25 26.62-2.21 33.73-10.35-21.68-18.31-55.13-3.65-56.38 24.69zm65.06-13.6c-10.77 10.2-31.04 13.61-42.83 13.21-8.96-.28-13.27 13.86-15.7 22.11 12.39 17.01 37.08 19.02 52.02 4.08 10.31-10.32 13.03-26.16 6.51-39.4zm-64.94-19.02c18.85-18.85 49.44-18.85 68.31 0 17.18 17.18 18.94 44.48 4.05 63.69h2.83l43.97-20.81 38.81-34.3c4.03-4.14 9.3-6.35 14.66-6.55 19.02-.74 29.68 22.05 16.64 36.17-5.81 6.26-38.01 36.14-46.54 40.93l-58.99 33.31v74.07c0 5.33-2.44 10.15-6.29 13.38v109.73c0 16.72-12.25 31.97-28.86 31.97-8.73 0-16.55-4.37-21.83-11.17-11.06 14.26-30.64 15.02-42.52 1.42-5.05-5.75-8.16-13.63-8.16-22.22v-109.72c-3.88-3.23-6.29-8.05-6.29-13.38v-79.91c0-18.26 11.59-34.24 28.29-40.34-17.02-19.1-16.17-48.16 1.92-66.27zm63.44 203.89h-73.36v105.73c0 15.53 15.48 23.95 25 13.04 2.89-3.29 4.68-7.91 4.68-13.04v-77.39c0-3.88 3.12-7 7-7 3.86 0 7 3.12 7 7v77.39c0 15.53 15.48 23.95 25 13.04 2.89-3.29 4.68-7.91 4.68-13.04z"/></svg>