<svg id="Capa_1" enable-background="new 0 0 512 512" height="300" viewBox="0 0 512 512" width="300" xmlns="http://www.w3.org/2000/svg" version="1.1" xmlns:xlink="http://www.w3.org/1999/xlink" xmlns:svgjs="http://svgjs.dev/svgjs"><g width="100%" height="100%" transform="matrix(1,0,0,1,0,0)"><g><path d="m323.576 446.524 66.536 48.342c15.651 11.371 36.71-3.929 30.732-22.328l-46.743-143.859c-2.674-8.228.255-17.243 7.255-22.328l122.374-88.91c15.651-11.371 7.608-36.127-11.738-36.127h-151.263c-8.652 0-16.319-5.571-18.993-13.799l-46.743-143.858c-5.978-18.399-32.008-18.399-37.986 0l-46.743 143.859c-2.674 8.228-10.341 13.799-18.993 13.799h-151.262c-19.346 0-27.389 24.756-11.738 36.127l122.374 88.91c7 5.085 9.928 14.099 7.255 22.328l-46.744 143.858c-5.978 18.399 15.08 33.699 30.732 22.328l83.524-60.684z" fill="#ffc238" fill-opacity="1" data-original-color="#b6ebddff" stroke="none" stroke-opacity="1" style=""/><g fill="#9de5d1"><path d="m238.815 167.516 41.46-127.602-5.282-16.257c-5.978-18.399-32.008-18.399-37.986 0l-46.743 143.859c-2.674 8.228-10.341 13.799-18.993 13.799h48.551c8.652 0 16.319-5.571 18.993-13.799z" fill="#f2a905" fill-opacity="1" data-original-color="#9de5d1ff" stroke="none" stroke-opacity="1" style=""/><path d="m139.707 472.538 46.743-143.859c2.674-8.228-.255-17.243-7.255-22.328l-122.374-88.91c-15.651-11.371-7.607-36.127 11.738-36.127h-48.55c-19.346 0-27.389 24.756-11.738 36.127l122.374 88.91c7 5.085 9.928 14.099 7.255 22.328l-46.744 143.859c-5.978 18.399 15.08 33.699 30.732 22.328l17.102-12.425c-.574-3.087-.408-6.439.717-9.903z" fill="#f2a905" fill-opacity="1" data-original-color="#9de5d1ff" stroke="none" stroke-opacity="1" style=""/></g><g><g><g><path d="m258.578 181.84c-9.563-.179-17.39 7.944-17.39 17.509v102.245c0 .306-.428.376-.526.086l-29.823-88.813c-3-8.934-12.675-13.745-21.609-10.744-8.934 3-13.745 12.674-10.745 21.609l29.938 90.207 66.894 56.827v-171.865c0-9.315-7.464-16.888-16.739-17.061z" fill="#fce2c1" fill-opacity="1" data-original-color="#ffe6c6ff" stroke="none" stroke-opacity="1"/><path d="m224.525 313.938-29.938-90.207c-2.69-8.012.913-16.604 8.126-20.459-4.003-2.144-8.839-2.71-13.483-1.15-8.934 3-13.745 12.674-10.745 21.609l29.938 90.207 66.894 56.827v-13.678z" fill="#f8d3aa" fill-opacity="1" data-original-color="#f8d3aaff" stroke="none" stroke-opacity="1" style=""/><path d="m241.385 338.32c4.417-2.724 7.37-7.592 7.37-13.162 0-8.544-6.926-15.469-15.47-15.469h-36.606c-14.556 0-26.356 11.8-26.356 26.356v39.718c0 10.313 3.949 20.234 11.036 27.726l24.053 25.427v59.219h115.839v-53.162l3.708-4.102c9.693-10.725 15.059-24.666 15.059-39.121v-61.745z" fill="#fce2c1" fill-opacity="1" data-original-color="#ffe6c6ff" stroke="none" stroke-opacity="1"/><path d="m262.868 324.412c-.391-8.321-7.558-14.723-15.888-14.723h-36.17c-14.556 0-26.356 11.8-26.356 26.356v39.718c0 3.473.448 6.901 1.312 10.208h63.992c2.142 0 3.879-1.737 3.879-3.879v-14.014c0-9.843-4.952-19.026-13.176-24.433l-4.754-2.45 11.709-.565c8.792-.002 15.87-7.335 15.452-16.218z" fill="#f8d3aa" fill-opacity="1" data-original-color="#f8d3aaff" stroke="none" stroke-opacity="1" style=""/><path d="m248.755 325.158c0-8.544-6.926-15.469-15.47-15.469h-36.606c-14.556 0-26.356 11.8-26.356 26.356v39.718c0 3.473.448 6.901 1.312 10.208l67.87-.001v-17.892c0-9.843-4.952-19.026-13.176-24.433l-4.754-2.45-7.564-.565h19.273c8.545-.002 15.471-6.928 15.471-15.472z" fill="#fce2c1" fill-opacity="1" data-original-color="#ffe6c6ff" stroke="none" stroke-opacity="1"/><g><path d="m227.079 488.134v-59.219l-24.053-25.427c-7.087-7.492-11.036-17.413-11.036-27.726v-39.718c0-14.556 11.8-26.356 26.356-26.356h14.943c-.001 0-.002 0-.004 0h-36.606c-14.556 0-26.356 11.8-26.356 26.356v39.718c0 10.313 3.949 20.234 11.036 27.726l24.053 25.427v59.219z" fill="#f8d3aa" fill-opacity="1" data-original-color="#f8d3aaff" stroke="none" stroke-opacity="1" style=""/></g><path d="m286.071 345.995-1.616-.428c-8.254-2.187-13.172-10.65-10.985-18.904l6.827-25.77c2.187-8.254 10.65-13.172 18.904-10.985l1.616.428c8.254 2.187 13.172 10.65 10.985 18.904l-6.827 25.77c-2.187 8.254-10.65 13.172-18.904 10.985z" fill="#fce2c1" fill-opacity="1" data-original-color="#ffe6c6ff" stroke="none" stroke-opacity="1"/><path d="m317.576 354.342-1.616-.428c-8.254-2.187-13.172-10.65-10.985-18.904l4.864-18.359c2.187-8.254 10.65-13.172 18.904-10.985l1.616.428c8.254 2.187 13.172 10.65 10.985 18.904l-4.864 18.359c-2.187 8.253-10.65 13.171-18.904 10.985z" fill="#fce2c1" fill-opacity="1" data-original-color="#ffe6c6ff" stroke="none" stroke-opacity="1"/><g fill="#f8d3aa"><path d="m289.332 326.25 6.608-24.943c1.156-4.363 4.025-7.808 7.687-9.83-1.008-.52-2.082-.948-3.224-1.251l-.789-.209c-8.482-2.247-17.18 2.808-19.427 11.289l-6.608 24.943c-2.247 8.482 2.807 17.179 11.289 19.427l.789.209c4.119 1.091 8.283.449 11.74-1.46-6.48-3.342-10.009-10.835-8.065-18.175z" fill="#f8d3aa" fill-opacity="1" data-original-color="#f8d3aaff" stroke="none" stroke-opacity="1" style=""/><path d="m320.837 334.597 4.645-17.532c1.156-4.364 4.025-7.808 7.687-9.83-1.008-.52-2.082-.948-3.224-1.25l-.789-.209c-8.482-2.247-17.18 2.808-19.427 11.29l-4.644 17.532c-2.247 8.482 2.807 17.179 11.289 19.426l.789.209c4.119 1.091 8.283.449 11.74-1.46-6.481-3.343-10.011-10.837-8.066-18.176z" fill="#f8d3aa" fill-opacity="1" data-original-color="#f8d3aaff" stroke="none" stroke-opacity="1" style=""/></g></g><path d="m330.634 502.143v-30.647c0-4.691-3.803-8.493-8.494-8.493h-117.618c-4.691 0-8.494 3.803-8.494 8.493v30.647z" fill="#0554f2" fill-opacity="1" data-original-color="#ea9a98ff" stroke="none" stroke-opacity="1" style=""/><path d="m233.827 463.002h-29.305c-4.691 0-8.494 3.803-8.494 8.493v30.648h29.305v-30.648c0-4.69 3.803-8.493 8.494-8.493z" fill="#1b62f0" fill-opacity="1" data-original-color="#e5827fff" stroke="none" stroke-opacity="1" style=""/></g></g><path d="m256.557 181.92c-8.81.863-15.369 8.577-15.369 17.429v55.943 45.296h5.107c6.072 0 10.995-4.923 10.995-10.995v-90.244c0-6.567 3.691-12.454 9.099-15.441-2.878-1.566-6.251-2.338-9.832-1.988z" fill="#f8d3aa" fill-opacity="1" data-original-color="#f8d3aaff" stroke="none" stroke-opacity="1" style=""/></g></g></svg>