<svg id="Layer_1" enable-background="new 0 0 256 256" height="512" viewBox="0 0 256 256" width="512" xmlns="http://www.w3.org/2000/svg"><path d="m134.474 83.798c-.001-17.986-7.317-34.294-19.13-46.107s-28.122-19.129-46.107-19.13c-35.971 0-65.236 29.266-65.237 65.237.001 32.369 23.701 59.294 54.658 64.366v24.881h-31.518v21.158h31.519v43.237h21.158v-43.237h31.518v-21.158h-31.519v-24.881c30.957-5.071 54.658-31.997 54.658-64.366zm-109.316 0c.001-24.305 19.774-44.078 44.079-44.079 24.305.001 44.078 19.774 44.079 44.079 0 24.305-19.774 44.079-44.079 44.079-24.305-.001-44.078-19.775-44.079-44.079z" fill="#ff4397"/><path d="m104.053 173.045h7.281v21.158h-7.281z" fill="#e12579"/><path d="m27.14 173.045h7.281v21.158h-7.281z" fill="#ff61b5"/><path d="m197.342 81.44v-21.944l8.979 9.132 15.086-14.835-34.644-35.233-34.645 35.232 15.086 14.835 8.98-9.132v21.945 11.961 14.435c-30.956 5.072-54.657 31.997-54.658 64.366.001 35.971 29.266 65.237 65.237 65.237 17.986-.001 34.294-7.317 46.107-19.13s19.129-28.122 19.13-46.107c0-32.369-23.702-59.295-54.658-64.366v-14.434zm-10.579 134.841c-24.305-.001-44.078-19.774-44.079-44.079.001-24.305 19.774-44.079 44.079-44.079s44.079 19.774 44.079 44.079c-.001 24.305-19.774 44.079-44.079 44.079z" fill="#8852a8"/><path d="m197.342 107.836-1.15.631c28.305 7.121 48.45 33.252 48.45 63.736-.001 17.986-7.317 34.294-19.13 46.107-11.002 11.002-25.905 18.096-42.429 19.02 1.219.068 2.444.11 3.679.11 17.986-.001 34.294-7.317 46.107-19.13s19.129-28.122 19.13-46.107c.001-32.37-23.701-59.296-54.657-64.367z" fill="#6a348a"/><path d="m202.705 64.95 3.617 3.678 15.086-14.836-34.645-35.232 27.288 35.232z" fill="#6a348a"/><path d="m176.184 107.836 1.224.672c-28.305 7.121-48.525 33.211-48.525 63.695.001 17.986 7.317 34.294 19.13 46.107 11.002 11.002 25.905 18.096 42.429 19.02-1.219.068-2.444.11-3.679.11-17.986-.001-34.294-7.317-46.108-19.13-11.813-11.813-19.129-28.122-19.13-46.107.001-32.37 23.702-59.296 54.659-64.367z" fill="#a670c6"/><path d="m170.821 64.95-3.617 3.678-15.086-14.836 34.645-35.232-27.288 35.232z" fill="#a670c6"/><path d="m186.763 239.439c-37.074 0-67.236-30.163-67.237-67.237 0-16.022 5.755-31.55 16.203-43.723 9.96-11.604 23.562-19.485 38.455-22.32v-41.777l-5.554 5.648c-.372.378-.879.593-1.41.598-.499.004-1.041-.202-1.419-.574l-15.086-14.836c-.788-.774-.798-2.041-.024-2.828l34.645-35.232c.752-.765 2.1-.765 2.853 0l34.645 35.232c.775.788.764 2.054-.023 2.828l-15.086 14.836c-.788.773-2.055.763-2.828-.024l-5.554-5.647v41.776c14.892 2.834 28.495 10.717 38.455 22.321 10.448 12.173 16.202 27.701 16.202 43.723 0 17.931-7.002 34.808-19.716 47.521s-29.59 19.715-47.521 19.715zm-10.578-181.943c.255 0 .512.049.757.149.751.308 1.242 1.039 1.242 1.851v48.341c0 .98-.71 1.815-1.677 1.974-14.619 2.395-28.023 9.951-37.743 21.275-9.826 11.448-15.238 26.05-15.238 41.117 0 34.869 28.369 63.236 63.237 63.237 16.863 0 32.735-6.586 44.693-18.544s18.544-27.831 18.544-44.693c0-15.067-5.412-29.669-15.238-41.117-9.721-11.325-23.125-18.881-37.743-21.276-.967-.158-1.677-.994-1.677-1.974v-48.339c0-.812.491-1.543 1.242-1.851.754-.306 1.614-.13 2.184.449l7.577 7.706 12.234-12.031-31.817-32.355-31.817 32.355 12.235 12.03 7.578-7.707c.384-.39.9-.597 1.427-.597zm10.578 160.785c-25.407 0-46.078-20.671-46.079-46.079.001-25.407 20.672-46.079 46.079-46.08 25.408 0 46.079 20.671 46.079 46.08-.001 25.408-20.672 46.079-46.079 46.079zm0-88.158c-23.202.001-42.078 18.878-42.079 42.08.001 23.202 18.877 42.078 42.079 42.079 23.202 0 42.079-18.877 42.079-42.079 0-23.203-18.877-42.08-42.079-42.08z" fill="#690589"/><path d="m79.816 148.164-1.15-.631c28.305-7.121 48.45-33.252 48.45-63.736-.001-17.986-7.317-34.294-19.13-46.107-11.002-11.002-25.905-18.096-42.429-19.02 1.219-.068 2.444-.11 3.679-.11 17.986.001 34.294 7.317 46.107 19.13s19.129 28.122 19.13 46.107c.001 32.37-23.7 59.296-54.657 64.367z" fill="#e12579"/><path d="m58.658 148.164 1.224-.672c-28.305-7.121-48.525-33.211-48.525-63.695 0-17.986 7.317-34.294 19.13-46.107 11.002-11.002 25.905-18.096 42.429-19.02-1.219-.068-2.444-.11-3.679-.11-17.986.001-34.294 7.317-46.107 19.13s-19.129 28.122-19.13 46.108c0 32.369 23.701 59.295 54.658 64.366z" fill="#ff61b5"/><g fill="#690589"><path d="m79.816 239.439h-21.158c-1.104 0-2-.896-2-2v-41.236h-29.518c-1.104 0-2-.896-2-2v-21.158c0-1.104.896-2 2-2h29.519v-21.205c-14.893-2.835-28.495-10.717-38.455-22.32-10.449-12.173-16.204-27.7-16.204-43.723 0-37.074 30.163-67.236 67.237-67.237 17.932 0 34.808 7.002 47.521 19.716 12.713 12.713 19.715 29.589 19.715 47.521 0 16.022-5.754 31.55-16.203 43.723-9.96 11.604-23.562 19.486-38.455 22.321v21.204h29.518c1.104 0 2 .896 2 2v21.158c0 1.104-.896 2-2 2h-29.517v41.236c0 1.105-.895 2-2 2zm-19.158-4h17.158v-41.236c0-1.104.896-2 2-2h29.518v-17.158h-29.518c-1.104 0-2-.896-2-2v-24.881c0-.98.71-1.815 1.677-1.974 14.619-2.395 28.022-9.951 37.743-21.276 9.826-11.448 15.238-26.05 15.238-41.117 0-16.863-6.586-32.735-18.543-44.693-11.958-11.957-27.831-18.543-44.694-18.543-34.868 0-63.237 28.368-63.237 63.236 0 15.067 5.412 29.669 15.238 41.117 9.72 11.325 23.125 18.88 37.743 21.275.967.158 1.677.994 1.677 1.974v24.881c0 1.104-.896 2-2 2h-29.518v17.158h29.519c1.104 0 2 .896 2 2v41.237zm8.579-105.562c-25.408-.001-46.079-20.672-46.079-46.08 0-25.407 20.671-46.078 46.079-46.079 25.408.001 46.079 20.672 46.079 46.079 0 25.409-20.67 46.08-46.079 46.08zm-42.079-46.08c0 23.202 18.877 42.079 42.079 42.08 23.203 0 42.079-18.877 42.079-42.08 0-23.202-18.877-42.078-42.079-42.079-23.202.001-42.078 18.878-42.079 42.079z"/><path d="m12.34 85.712c-1.104 0-2-.896-2-2 0-4.188.45-8.369 1.338-12.427.235-1.079 1.302-1.764 2.381-1.526 1.079.236 1.763 1.302 1.526 2.381-.826 3.779-1.245 7.672-1.245 11.573 0 1.104-.896 1.999-2 1.999z"/></g></svg>