<svg version="1.1" id="Capa_1" xmlns="http://www.w3.org/2000/svg" xmlns:xlink="http://www.w3.org/1999/xlink" x="0px" y="0px" viewBox="0 0 512 512" style="enable-background:new 0 0 512 512;" xml:space="preserve" width="300" height="300" xmlns:svgjs="http://svgjs.dev/svgjs"><g width="100%" height="100%" transform="matrix(1,0,0,1,0,0)"><rect x="135.765" y="18.766" style="" width="128.25" height="448.877" fill="#f0f0f1" fill-opacity="1" data-original-color="#f0f0f1ff" stroke="none" stroke-opacity="1"/><rect x="135.765" y="18.766" style="" width="24.047" height="448.877" fill="#e1e0e4" fill-opacity="1" data-original-color="#e1e0e4ff" stroke="none" stroke-opacity="1"/><rect x="135.765" y="411.534" style="" width="128.25" height="56.11" fill="#ffffff" fill-opacity="1" data-original-color="#38c7c2ff" stroke="none" stroke-opacity="1"/><rect x="135.765" y="411.534" style="" width="24.047" height="56.11" fill="#c2c2c2" fill-opacity="1" data-original-color="#00b5b8ff" stroke="none" stroke-opacity="1"/><rect x="135.765" y="18.766" style="" width="128.25" height="56.11" fill="#ffffff" fill-opacity="1" data-original-color="#38c7c2ff" stroke="none" stroke-opacity="1"/><rect x="135.765" y="18.766" style="" width="24.047" height="56.11" fill="#c2c2c2" fill-opacity="1" data-original-color="#00b5b8ff" stroke="none" stroke-opacity="1"/><rect x="135.765" y="122.97" style="" width="128.25" height="240.47" fill="#ffffff" fill-opacity="1" data-original-color="#38c7c2ff" stroke="none" stroke-opacity="1"/><rect x="135.765" y="122.97" style="" width="24.047" height="240.47" fill="#c2c2c2" fill-opacity="1" data-original-color="#00b5b8ff" stroke="none" stroke-opacity="1"/><g>
	<path style="" d="M215.922,155.032c0,8.853-7.177,16.031-16.031,16.031s-16.031-7.178-16.031-16.031h-16.031v176.344&#10;&#9;&#9;h16.031c0-8.853,7.177-16.031,16.031-16.031s16.031,7.178,16.031,16.031h16.031V155.032H215.922z" fill="#f0f0f1" fill-opacity="1" data-original-color="#f0f0f1ff" stroke="none" stroke-opacity="1"/>
	<rect x="7.515" y="18.766" style="" width="128.25" height="448.877" fill="#f0f0f1" fill-opacity="1" data-original-color="#f0f0f1ff" stroke="none" stroke-opacity="1"/>
</g><rect x="7.515" y="18.766" style="" width="24.047" height="448.877" fill="#e1e0e4" fill-opacity="1" data-original-color="#e1e0e4ff" stroke="none" stroke-opacity="1"/><rect x="7.515" y="411.534" style="" width="128.25" height="56.11" fill="#ad7dc9" fill-opacity="1" data-original-color="#ad7dc9ff" stroke="none" stroke-opacity="1"/><rect x="7.515" y="411.534" style="" width="24.047" height="56.11" fill="#8a6cbd" fill-opacity="1" data-original-color="#8a6cbdff" stroke="none" stroke-opacity="1"/><rect x="7.515" y="18.766" style="" width="128.25" height="56.11" fill="#ad7dc9" fill-opacity="1" data-original-color="#ad7dc9ff" stroke="none" stroke-opacity="1"/><rect x="7.515" y="18.766" style="" width="24.047" height="56.11" fill="#8a6cbd" fill-opacity="1" data-original-color="#8a6cbdff" stroke="none" stroke-opacity="1"/><rect x="7.515" y="122.97" style="" width="128.25" height="240.47" fill="#ad7dc9" fill-opacity="1" data-original-color="#ad7dc9ff" stroke="none" stroke-opacity="1"/><rect x="7.515" y="122.97" style="" width="24.047" height="240.47" fill="#8a6cbd" fill-opacity="1" data-original-color="#8a6cbdff" stroke="none" stroke-opacity="1"/><g>
	<path style="" d="M87.671,155.032c0,8.853-7.177,16.031-16.031,16.031s-16.031-7.178-16.031-16.031H39.577v176.344&#10;&#9;&#9;h16.031c0-8.853,7.177-16.031,16.031-16.031s16.031,7.178,16.031,16.031h16.031V155.032H87.671z" fill="#f0f0f1" fill-opacity="1" data-original-color="#f0f0f1ff" stroke="none" stroke-opacity="1"/>
	
		<rect x="339.352" y="18.771" transform="matrix(-0.9914 0.1311 -0.1311 -0.9914 835.36 431.4387)" style="" width="128.254" height="448.89" fill="#f0f0f1" fill-opacity="1" data-original-color="#f0f0f1ff" stroke="none" stroke-opacity="1"/>
</g><rect x="127.393" y="238.008" transform="matrix(0.1311 0.9914 -0.9914 0.1311 553.5874 -131.5477)" style="" width="448.89" height="24.048" fill="#e1e0e4" fill-opacity="1" data-original-color="#e1e0e4ff" stroke="none" stroke-opacity="1"/><rect x="365.101" y="409.857" transform="matrix(-0.9914 0.1311 -0.1311 -0.9914 912.1607 815.7766)" style="" width="128.254" height="56.111" fill="#fcde76" fill-opacity="1" data-original-color="#fcde76ff" stroke="none" stroke-opacity="1"/><rect x="349.525" y="432.697" transform="matrix(0.1311 0.9914 -0.9914 0.1311 768.964 12.0971)" style="" width="56.111" height="24.048" fill="#facf57" fill-opacity="1" data-original-color="#facf57ff" stroke="none" stroke-opacity="1"/><rect x="313.612" y="20.464" transform="matrix(-0.9914 0.1311 -0.1311 -0.9914 758.58 47.1008)" style="" width="128.254" height="56.111" fill="#fcde76" fill-opacity="1" data-original-color="#fcde76ff" stroke="none" stroke-opacity="1"/><rect x="298.021" y="43.311" transform="matrix(0.1311 0.9914 -0.9914 0.1311 338.1865 -275.1819)" style="" width="56.111" height="24.048" fill="#facf57" fill-opacity="1" data-original-color="#facf57ff" stroke="none" stroke-opacity="1"/><rect x="339.352" y="122.979" transform="matrix(-0.9914 0.1311 -0.1311 -0.9914 835.3604 431.4406)" style="" width="128.254" height="240.477" fill="#fcde76" fill-opacity="1" data-original-color="#fcde76ff" stroke="none" stroke-opacity="1"/><rect x="231.599" y="238.008" transform="matrix(0.1311 0.9914 -0.9914 0.1311 553.5874 -131.5477)" style="" width="240.477" height="24.048" fill="#facf57" fill-opacity="1" data-original-color="#facf57ff" stroke="none" stroke-opacity="1"/><path style="" d="M407.804,153.691c1.161,8.777-5.014,16.834-13.791,17.995c-8.777,1.161-16.834-5.014-17.995-13.791&#10;&#9;l-15.893,2.102l23.12,174.822l15.893-2.102c-1.161-8.777,5.014-16.834,13.791-17.995c8.777-1.161,16.834,5.014,17.995,13.791&#10;&#9;l15.893-2.102l-23.12-174.822L407.804,153.691z" fill="#f0f0f1" fill-opacity="1" data-original-color="#f0f0f1ff" stroke="none" stroke-opacity="1"/><rect x="7.515" y="467.643" style="" width="496.971" height="32.063" fill="#787485" fill-opacity="1" data-original-color="#787485ff" stroke="none" stroke-opacity="1"/><path d="M39.577,338.891h16.031c4.15,0,7.515-3.364,7.515-7.515c0-4.696,3.82-8.517,8.517-8.517s8.517,3.82,8.517,8.517&#10;&#9;c0,4.151,3.365,7.515,7.515,7.515h16.031c4.15,0,7.515-3.364,7.515-7.515V155.032c0-4.151-3.365-7.515-7.515-7.515H87.671&#10;&#9;c-4.15,0-7.515,3.364-7.515,7.515c0,4.696-3.82,8.517-8.517,8.517s-8.517-3.82-8.517-8.517c0-4.151-3.365-7.515-7.515-7.515H39.577&#10;&#9;c-4.15,0-7.515,3.364-7.515,7.515v176.344C32.063,335.526,35.427,338.891,39.577,338.891z M47.092,162.546h2.231&#10;&#9;c3.143,9.31,11.959,16.031,22.317,16.031s19.173-6.721,22.317-16.031h2.231v161.315h-2.231c-3.143-9.31-11.959-16.031-22.317-16.031&#10;&#9;s-19.173,6.721-22.317,16.031h-2.231V162.546z" fill="#000000" fill-opacity="1" data-original-color="#000000ff" stroke="none" stroke-opacity="1"/><path d="M303.734,25.788c-0.651,1.325-0.903,2.844-0.709,4.306l58.852,445.002c0.537,4.061,4.375,7,8.434,6.465l127.143-16.814&#10;&#9;c4.055-0.536,7.002-4.378,6.465-8.435L445.067,11.31c-0.544-4.113-4.321-7.005-8.434-6.465L309.489,21.659&#10;&#9;C307.024,21.986,304.835,23.559,303.734,25.788z M480.678,395.207l-112.243,14.844l-4.334-32.778l112.243-14.844L480.678,395.207z&#10;&#9; M474.373,347.529l-112.243,14.844l-29.558-223.494l112.243-14.844L474.373,347.529z M442.845,109.134l-112.243,14.844&#10;&#9;l-4.335-32.779l112.243-14.843L442.845,109.134z M375.791,465.676l-5.386-40.726l112.243-14.843l5.387,40.726L375.791,465.676z&#10;&#9; M431.153,20.731l5.385,40.726L324.295,76.3l-5.386-40.726L431.153,20.731z" fill="#000000" fill-opacity="1" data-original-color="#000000ff" stroke="none" stroke-opacity="1"/><path d="M422.713,144.139l-15.893,2.102c-4.055,0.536-7.002,4.378-6.465,8.435c0.608,4.607-2.728,8.948-7.327,9.559&#10;&#9;c-4.604,0.611-8.951-2.727-9.56-7.326c-0.536-4.056-4.377-7.002-8.434-6.465l-15.893,2.102c-4.055,0.536-7.002,4.378-6.465,8.435&#10;&#9;l23.12,174.821c0.5,3.779,3.728,6.531,7.441,6.531c0.328,0,0.66-0.021,0.995-0.065l15.893-2.102&#10;&#9;c4.055-0.536,7.002-4.378,6.465-8.435c-0.608-4.607,2.729-8.947,7.327-9.559c4.604-0.612,8.95,2.728,9.56,7.326&#10;&#9;c0.544,4.114,4.323,7.01,8.434,6.465l15.893-2.102c4.055-0.536,7.002-4.378,6.465-8.435l-23.12-174.821&#10;&#9;C430.604,146.49,426.829,143.591,422.713,144.139z M436.182,320.237c-1.578-3.224-3.894-6.065-6.826-8.312&#10;&#9;c-4.992-3.824-11.174-5.478-17.409-4.654c-6.235,0.825-11.776,4.028-15.601,9.02c-2.248,2.933-3.745,6.277-4.432,9.8l-2.201,0.291&#10;&#9;l-21.15-159.921l2.201-0.292c1.578,3.225,3.894,6.065,6.826,8.312c4.992,3.825,11.179,5.481,17.409,4.654&#10;&#9;c6.235-0.825,11.776-4.028,15.601-9.02c2.248-2.933,3.745-6.277,4.432-9.8l2.201-0.291l21.15,159.921L436.182,320.237z" fill="#000000" fill-opacity="1" data-original-color="#000000ff" stroke="none" stroke-opacity="1"/><path d="M215.922,147.517c-4.15,0-7.515,3.364-7.515,7.515c0,4.696-3.82,8.517-8.517,8.517s-8.517-3.82-8.517-8.517&#10;&#9;c0-4.151-3.365-7.515-7.515-7.515h-16.031c-4.15,0-7.515,3.364-7.515,7.515v176.344c0,4.151,3.365,7.515,7.515,7.515h16.031&#10;&#9;c4.15,0,7.515-3.364,7.515-7.515c0-4.696,3.82-8.517,8.517-8.517s8.517,3.82,8.517,8.517c0,4.151,3.365,7.515,7.515,7.515h16.031&#10;&#9;c4.15,0,7.515-3.364,7.515-7.515V155.032c0-4.151-3.365-7.515-7.515-7.515H215.922z M224.438,323.861h-2.231&#10;&#9;c-3.143-9.31-11.959-16.031-22.317-16.031s-19.173,6.721-22.317,16.031h-2.231V162.546h2.231&#10;&#9;c3.143,9.31,11.959,16.031,22.317,16.031s19.173-6.721,22.317-16.031h2.231V323.861z" fill="#000000" fill-opacity="1" data-original-color="#000000ff" stroke="none" stroke-opacity="1"/><path d="M504.485,476.159c-4.15,0-7.515,3.364-7.515,7.515v8.517H15.029v-17.033h321.127c4.15,0,7.515-3.364,7.515-7.515&#10;&#9;c0-4.151-3.365-7.515-7.515-7.515H271.53V223.666c0-4.151-3.365-7.515-7.515-7.515s-7.515,3.364-7.515,7.515v132.258H143.28v-225.44&#10;&#9;h113.221v57.112c0,4.151,3.365,7.515,7.515,7.515s7.515-3.364,7.515-7.515V18.766c0-4.151-3.365-7.515-7.515-7.515H7.515&#10;&#9;C3.365,11.251,0,14.614,0,18.766v480.939c0,4.151,3.365,7.515,7.515,7.515h496.971c4.15,0,7.515-3.364,7.515-7.515v-16.031&#10;&#9;C512,479.522,508.635,476.159,504.485,476.159z M128.25,355.924H15.029v-225.44H128.25V355.924z M128.25,370.953v33.065H15.029&#10;&#9;v-33.065H128.25z M128.25,115.454H15.029V82.39H128.25V115.454z M15.029,419.047H128.25v41.08H15.029V419.047z M143.28,460.128&#10;&#9;v-41.08h113.221v41.08H143.28z M256.501,370.953v33.065H143.28v-33.065H256.501z M143.28,115.454V82.39h113.221v33.065H143.28z&#10;&#9; M256.501,67.36H143.28V26.28h113.221V67.36z M15.029,26.28H128.25v41.08H15.029V26.28z" fill="#000000" fill-opacity="1" data-original-color="#000000ff" stroke="none" stroke-opacity="1"/><g>
</g><g>
</g><g>
</g><g>
</g><g>
</g><g>
</g><g>
</g><g>
</g><g>
</g><g>
</g><g>
</g><g>
</g><g>
</g><g>
</g><g>
</g></g></svg>